<svg width="14" height="14" viewBox="0 0 14 14" fill="none" xmlns="http://www.w3.org/2000/svg">
<path d="M5.5 1.5H13.75V2.5H5.5V1.5ZM0.25 2C0.25 2.39556 0.367298 2.78224 0.587061 3.11114C0.806824 3.44004 1.11918 3.69638 1.48463 3.84776C1.85009 3.99913 2.25222 4.03874 2.64018 3.96157C3.02814 3.8844 3.38451 3.69392 3.66421 3.41421C3.94392 3.13451 4.1344 2.77814 4.21157 2.39018C4.28874 2.00222 4.24913 1.60009 4.09776 1.23463C3.94638 0.869181 3.69004 0.556824 3.36114 0.337061C3.03224 0.117298 2.64556 0 2.25 0C1.71975 0.000595527 1.21139 0.2115 0.836444 0.586444C0.4615 0.961388 0.250596 1.46975 0.25 2ZM2.25 1C2.44778 1 2.64112 1.05865 2.80557 1.16853C2.97002 1.27841 3.09819 1.43459 3.17388 1.61732C3.24957 1.80004 3.26937 2.00111 3.23079 2.19509C3.1922 2.38907 3.09696 2.56725 2.95711 2.70711C2.81725 2.84696 2.63907 2.9422 2.44509 2.98079C2.25111 3.01937 2.05004 2.99957 1.86732 2.92388C1.68459 2.84819 1.52841 2.72002 1.41853 2.55557C1.30865 2.39112 1.25 2.19778 1.25 2C1.2503 1.73487 1.35575 1.48069 1.54322 1.29322C1.73069 1.10575 1.98487 1.0003 2.25 1ZM5.5 6.5H13.75V7.5H5.5V6.5ZM2.25 9C2.64556 9 3.03224 8.8827 3.36114 8.66294C3.69004 8.44318 3.94638 8.13082 4.09776 7.76537C4.24913 7.39991 4.28874 6.99778 4.21157 6.60982C4.1344 6.22186 3.94392 5.86549 3.66421 5.58579C3.38451 5.30608 3.02814 5.1156 2.64018 5.03843C2.25222 4.96126 1.85009 5.00087 1.48463 5.15224C1.11918 5.30362 0.806824 5.55996 0.587061 5.88886C0.367298 6.21776 0.25 6.60444 0.25 7C0.250596 7.53025 0.4615 8.03861 0.836444 8.41356C1.21139 8.7885 1.71975 8.9994 2.25 9ZM2.25 6C2.44778 6 2.64112 6.05865 2.80557 6.16853C2.97002 6.27841 3.09819 6.43459 3.17388 6.61732C3.24957 6.80004 3.26937 7.00111 3.23079 7.19509C3.1922 7.38907 3.09696 7.56725 2.95711 7.70711C2.81725 7.84696 2.63907 7.9422 2.44509 7.98079C2.25111 8.01937 2.05004 7.99957 1.86732 7.92388C1.68459 7.84819 1.52841 7.72002 1.41853 7.55557C1.30865 7.39112 1.25 7.19778 1.25 7C1.2503 6.73487 1.35575 6.48069 1.54322 6.29322C1.73069 6.10575 1.98487 6.0003 2.25 6ZM5.5 11.5H13.75V12.5H5.5V11.5ZM2.25 14C2.64556 14 3.03224 13.8827 3.36114 13.6629C3.69004 13.4432 3.94638 13.1308 4.09776 12.7654C4.24913 12.3999 4.28874 11.9978 4.21157 11.6098C4.1344 11.2219 3.94392 10.8655 3.66421 10.5858C3.38451 10.3061 3.02814 10.1156 2.64018 10.0384C2.25222 9.96126 1.85009 10.0009 1.48463 10.1522C1.11918 10.3036 0.806824 10.56 0.587061 10.8889C0.367298 11.2178 0.25 11.6044 0.25 12C0.250596 12.5303 0.4615 13.0386 0.836444 13.4136C1.21139 13.7885 1.71975 13.9994 2.25 14ZM2.25 11C2.44778 11 2.64112 11.0586 2.80557 11.1685C2.97002 11.2784 3.09819 11.4346 3.17388 11.6173C3.24957 11.8 3.26937 12.0011 3.23079 12.1951C3.1922 12.3891 3.09696 12.5673 2.95711 12.7071C2.81725 12.847 2.63907 12.9422 2.44509 12.9808C2.25111 13.0194 2.05004 12.9996 1.86732 12.9239C1.68459 12.8482 1.52841 12.72 1.41853 12.5556C1.30865 12.3911 1.25 12.1978 1.25 12C1.2503 11.7349 1.35575 11.4807 1.54322 11.2932C1.73069 11.1058 1.98487 11.0003 2.25 11Z" fill="#A1A1A1"/>
</svg>
