<svg width="16" height="12" viewBox="0 0 16 12" fill="none" xmlns="http://www.w3.org/2000/svg">
<path fill-rule="evenodd" clip-rule="evenodd" d="M9.70464 0.183456C7.71451 -0.0430633 5.70879 -0.0598567 3.71567 0.133311L2.38461 0.261864C1.85049 0.313772 1.34809 0.559193 0.958509 0.958516C0.568927 1.35784 0.314889 1.88776 0.237397 2.46276C-0.0791323 4.8086 -0.0791323 7.19186 0.237397 9.53771C0.315067 10.1128 0.569272 10.6427 0.958995 11.042C1.34872 11.4413 1.85123 11.6867 2.38545 11.7386L3.71651 11.8662C5.70961 12.0597 7.71532 12.0433 9.70548 11.817L10.217 11.7587C10.7248 11.7009 11.2023 11.4688 11.5797 11.0961C11.957 10.7234 12.2146 10.2298 12.3146 9.68723L14.8783 11.1624C14.9703 11.2154 15.0731 11.2428 15.1773 11.2423C15.2815 11.2418 15.384 11.2133 15.4756 11.1594C15.5671 11.1055 15.645 11.0278 15.7021 10.9334C15.7592 10.8389 15.7939 10.7306 15.803 10.6181L15.824 10.3592C16.0587 7.45847 16.0587 4.54109 15.824 1.64039L15.803 1.38146C15.7938 1.2689 15.7591 1.16056 15.7018 1.06611C15.6446 0.971661 15.5667 0.894054 15.475 0.840227C15.3833 0.786399 15.2807 0.75803 15.1765 0.757653C15.0722 0.757277 14.9695 0.784906 14.8775 0.838071L12.3146 2.31324C12.2146 1.7707 11.957 1.27703 11.5797 0.904362C11.2023 0.53169 10.7248 0.299534 10.217 0.241806L9.70464 0.183456ZM3.82842 1.49542C5.74006 1.31024 7.66378 1.32642 9.57254 1.54374L10.0841 1.60209C10.334 1.63077 10.5681 1.74873 10.7494 1.9374C10.9306 2.12607 11.0488 2.37472 11.0853 2.64419C11.3866 4.8697 11.3866 7.12986 11.0853 9.35628C11.0488 9.62575 10.9306 9.8744 10.7494 10.0631C10.5681 10.2517 10.334 10.3697 10.0841 10.3984L9.57254 10.4567C7.66378 10.6741 5.74006 10.6902 3.82842 10.505L2.49735 10.3756C2.24579 10.3513 2.00912 10.2358 1.82549 10.0479C1.64186 9.86005 1.52198 9.61062 1.48517 9.33987C1.18634 7.12522 1.18634 4.87525 1.48517 2.6606C1.52166 2.38962 1.64142 2.13989 1.8251 1.95178C2.00877 1.76367 2.24561 1.64818 2.49735 1.62397L3.82842 1.49542ZM12.4795 3.76652C12.6049 5.25262 12.6049 6.74784 12.4795 8.23395L14.6225 9.46751C14.7751 7.15895 14.7751 4.84152 14.6225 2.53296L12.4795 3.76652Z" fill="#A1A1A1"/>
</svg>
