<svg width="24" height="24" viewBox="0 0 24 24" fill="none" xmlns="http://www.w3.org/2000/svg">
<path d="M5.6 19.92L7.124 18.701L7.134 18.693C7.452 18.438 7.613 18.31 7.792 18.219C7.952 18.137 8.123 18.077 8.3 18.041C8.499 18 8.706 18 9.122 18H17.803C18.921 18 19.481 18 19.908 17.782C20.2843 17.5903 20.5903 17.2843 20.782 16.908C21 16.48 21 15.92 21 14.804V7.197C21 6.079 21 5.519 20.782 5.092C20.5899 4.71558 20.2836 4.40963 19.907 4.218C19.48 4 18.92 4 17.8 4H6.2C5.08 4 4.52 4 4.092 4.218C3.71565 4.40969 3.40969 4.71565 3.218 5.092C3 5.52 3 6.08 3 7.2V18.671C3 19.737 3 20.27 3.218 20.543C3.31174 20.6607 3.43083 20.7557 3.56641 20.821C3.70198 20.8863 3.85053 20.9201 4.001 20.92C4.34926 20.92 4.76287 20.5893 5.58763 19.9299L5.6 19.92Z" fill="#BCDEFF"/>
<path d="M5.6 19.92L7.124 18.701L7.134 18.693C7.452 18.438 7.613 18.31 7.792 18.219C7.952 18.137 8.123 18.077 8.3 18.041C8.499 18 8.706 18 9.122 18H17.803C18.921 18 19.481 18 19.908 17.782C20.2843 17.5903 20.5903 17.2843 20.782 16.908C21 16.48 21 15.92 21 14.804V7.197C21 6.079 21 5.519 20.782 5.092C20.5899 4.71558 20.2836 4.40963 19.907 4.218C19.48 4 18.92 4 17.8 4H6.2C5.08 4 4.52 4 4.092 4.218C3.71565 4.40969 3.40969 4.71565 3.218 5.092C3 5.52 3 6.08 3 7.2V18.671C3 19.737 3 20.27 3.218 20.543C3.31174 20.6607 3.43083 20.7557 3.56641 20.821C3.70198 20.8863 3.85053 20.9201 4.001 20.92C4.34926 20.92 4.76287 20.5893 5.58763 19.9299M5.6 19.92L5.58763 19.9299M5.6 19.92C5.59587 19.9233 5.59174 19.9266 5.58763 19.9299" stroke="#2A85FF" stroke-width="2" stroke-linecap="round" stroke-linejoin="round"/>
</svg>
