<svg width="20" height="20" viewBox="0 0 20 20" fill="none" xmlns="http://www.w3.org/2000/svg">
<path d="M12.5001 12.5L15.7967 9.20332C15.893 9.10698 15.9641 8.98852 16.004 8.85831C16.0438 8.7281 16.0512 8.59011 16.0253 8.45641C15.9995 8.32271 15.9413 8.19737 15.8559 8.09137C15.7704 7.98536 15.6603 7.90191 15.5351 7.84832L11.1509 5.96916C11.0502 5.92606 10.959 5.86355 10.8825 5.78519C10.806 5.70684 10.7457 5.61417 10.7051 5.51249L9.6359 2.83999C9.58468 2.71202 9.50252 2.59876 9.39678 2.51035C9.29103 2.42194 9.16501 2.36113 9.02999 2.33338C8.89498 2.30564 8.75519 2.31182 8.62315 2.35136C8.49111 2.39091 8.37094 2.46259 8.2734 2.55999L2.56007 8.27332C2.46267 8.37086 2.39099 8.49103 2.35144 8.62307C2.3119 8.75511 2.30572 8.8949 2.33346 9.02991C2.36121 9.16493 2.42201 9.29095 2.51043 9.3967C2.59884 9.50244 2.7121 9.5846 2.84007 9.63582L5.51257 10.705C5.61425 10.7457 5.70692 10.806 5.78527 10.8825C5.86363 10.959 5.92614 11.0501 5.96924 11.1508L7.8484 15.535C7.90199 15.6602 7.98544 15.7703 8.09144 15.8558C8.19745 15.9413 8.32279 15.9994 8.45649 16.0253C8.59019 16.0511 8.72818 16.0437 8.85839 16.0039C8.9886 15.964 9.10706 15.8929 9.2034 15.7967L12.5001 12.5Z" fill="#2A85FF"/>
<path d="M16.6667 16.6667L12.5001 12.5M12.5001 12.5L15.7967 9.20332C15.893 9.10698 15.9641 8.98852 16.004 8.85831C16.0438 8.7281 16.0512 8.59011 16.0253 8.45641C15.9995 8.32271 15.9413 8.19737 15.8559 8.09137C15.7704 7.98536 15.6603 7.90191 15.5351 7.84832L11.1509 5.96916C11.0502 5.92606 10.959 5.86355 10.8825 5.78519C10.806 5.70684 10.7457 5.61417 10.7051 5.51249L9.6359 2.83999C9.58468 2.71202 9.50252 2.59876 9.39678 2.51035C9.29103 2.42193 9.16501 2.36113 9.02999 2.33338C8.89498 2.30564 8.75519 2.31182 8.62315 2.35136C8.49111 2.39091 8.37094 2.46259 8.2734 2.55999L2.56007 8.27332C2.46267 8.37086 2.39099 8.49103 2.35144 8.62307C2.3119 8.75511 2.30572 8.8949 2.33346 9.02991C2.36121 9.16493 2.42201 9.29095 2.51043 9.3967C2.59884 9.50244 2.7121 9.5846 2.84007 9.63582L5.51257 10.705C5.61425 10.7457 5.70692 10.806 5.78527 10.8825C5.86363 10.959 5.92614 11.0501 5.96924 11.1508L7.8484 15.535C7.90199 15.6602 7.98544 15.7703 8.09144 15.8558C8.19745 15.9413 8.32279 15.9994 8.45649 16.0253C8.59019 16.0511 8.72818 16.0437 8.85839 16.0039C8.9886 15.964 9.10706 15.8929 9.2034 15.7967L12.5001 12.5Z" stroke="#2A85FF" stroke-width="1.66667" stroke-linecap="round" stroke-linejoin="round"/>
</svg>
