<svg width="14" height="15" viewBox="0 0 14 15" fill="none" xmlns="http://www.w3.org/2000/svg">
<path d="M1.16671 3.57421L1.91337 2.83337L11.6667 12.5867L10.9259 13.3334L9.12921 11.5367C8.45837 11.7584 7.74671 11.875 7.00004 11.875C4.08337 11.875 1.59254 10.0609 0.583374 7.50004C0.985874 6.47337 1.62754 5.56921 2.44421 4.85171L1.16671 3.57421ZM7.00004 5.75004C7.46417 5.75004 7.90929 5.93441 8.23748 6.2626C8.56567 6.59079 8.75004 7.03591 8.75004 7.50004C8.75033 7.6987 8.7168 7.89597 8.65087 8.08337L6.41671 5.84921C6.60411 5.78328 6.80138 5.74975 7.00004 5.75004ZM7.00004 3.12504C9.91671 3.12504 12.4075 4.93921 13.4167 7.50004C12.9406 8.70941 12.1316 9.75912 11.0834 10.5275L10.255 9.69337C11.0617 9.13535 11.7123 8.38032 12.145 7.50004C11.6735 6.5375 10.9413 5.72657 10.0318 5.15942C9.12227 4.59226 8.07189 4.29164 7.00004 4.29171C6.36421 4.29171 5.74004 4.39671 5.15671 4.58337L4.25837 3.69087C5.09837 3.32921 6.02587 3.12504 7.00004 3.12504ZM1.85504 7.50004C2.32663 8.46258 3.05879 9.27351 3.9683 9.84066C4.87781 10.4078 5.92819 10.7084 7.00004 10.7084C7.40254 10.7084 7.79921 10.6675 8.16671 10.5859L6.83671 9.25004C6.4308 9.20653 6.05202 9.02538 5.76336 8.73672C5.4747 8.44806 5.29355 8.06928 5.25004 7.66337L3.26671 5.67421C2.68921 6.17004 2.20504 6.78837 1.85504 7.50004Z" fill="#2A85FF"/>
</svg>
