<svg width="21" height="21" viewBox="0 0 21 21" fill="none" xmlns="http://www.w3.org/2000/svg">
<path d="M17.5 17.5L13.125 13.125M13.125 13.125L16.5865 9.6635C16.6875 9.56234 16.7622 9.43796 16.8041 9.30124C16.8459 9.16452 16.8536 9.01963 16.8265 8.87924C16.7994 8.73886 16.7383 8.60725 16.6486 8.49594C16.5588 8.38464 16.4432 8.29702 16.3117 8.24075L11.7084 6.26763C11.6026 6.22238 11.5069 6.15674 11.4266 6.07446C11.3462 5.99219 11.2829 5.89489 11.2402 5.78812L10.1176 2.982C10.0638 2.84764 9.97755 2.72871 9.86652 2.63588C9.75548 2.54304 9.62316 2.4792 9.48139 2.45006C9.33963 2.42093 9.19285 2.42742 9.05421 2.46894C8.91556 2.51047 8.78939 2.58573 8.68698 2.688L2.68798 8.687C2.58571 8.78941 2.51044 8.91559 2.46892 9.05423C2.42739 9.19287 2.42091 9.33965 2.45004 9.48142C2.47917 9.62318 2.54302 9.75551 2.63585 9.86654C2.72869 9.97757 2.84761 10.0638 2.98198 10.1176L5.7881 11.2402C5.89486 11.2829 5.99216 11.3463 6.07444 11.4266C6.15672 11.5069 6.22235 11.6027 6.2676 11.7084L8.24073 16.3118C8.29699 16.4432 8.38461 16.5588 8.49592 16.6486C8.60723 16.7383 8.73883 16.7994 8.87922 16.8265C9.0196 16.8537 9.16449 16.8459 9.30121 16.8041C9.43793 16.7623 9.56231 16.6875 9.66348 16.5865L13.125 13.125Z" stroke="#59ACFF" stroke-width="1.33333" stroke-linecap="round" stroke-linejoin="round"/>
</svg>
