<svg width="16" height="16" viewBox="0 0 16 16" fill="none" xmlns="http://www.w3.org/2000/svg">
<path d="M6.88889 4.07143H13V4.78571H6.88889V4.07143ZM3 4.42857C3 4.71112 3.08689 4.98732 3.24967 5.22224C3.41246 5.45717 3.64384 5.64027 3.91454 5.7484C4.18525 5.85652 4.48312 5.88482 4.7705 5.82969C5.05788 5.77457 5.32186 5.63851 5.52905 5.43872C5.73624 5.23893 5.87733 4.98439 5.9345 4.70727C5.99166 4.43016 5.96232 4.14292 5.85019 3.88188C5.73806 3.62084 5.54818 3.39773 5.30455 3.24076C5.06092 3.08378 4.77449 3 4.48148 3C4.0887 3.00043 3.71214 3.15107 3.4344 3.41889C3.15667 3.68671 3.00044 4.04982 3 4.42857ZM4.48148 3.71429C4.62799 3.71429 4.7712 3.75618 4.89301 3.83466C5.01483 3.91315 5.10977 4.02471 5.16584 4.15523C5.2219 4.28574 5.23657 4.42936 5.20799 4.56792C5.17941 4.70648 5.10886 4.83375 5.00526 4.93365C4.90167 5.03354 4.76968 5.10157 4.62599 5.12913C4.4823 5.15669 4.33336 5.14255 4.19801 5.08849C4.06266 5.03442 3.94697 4.94287 3.86558 4.82541C3.78418 4.70794 3.74074 4.56984 3.74074 4.42857C3.74096 4.2392 3.81907 4.05764 3.95794 3.92373C4.09681 3.78982 4.28509 3.7145 4.48148 3.71429ZM6.88889 7.64286H13V8.35714H6.88889V7.64286ZM4.48148 9.42857C4.77449 9.42857 5.06092 9.34479 5.30455 9.18781C5.54818 9.03084 5.73806 8.80773 5.85019 8.54669C5.96232 8.28565 5.99166 7.99842 5.9345 7.7213C5.87733 7.44418 5.73624 7.18964 5.52905 6.98985C5.32186 6.79006 5.05788 6.654 4.7705 6.59888C4.48312 6.54376 4.18525 6.57205 3.91454 6.68017C3.64384 6.7883 3.41246 6.9714 3.24967 7.20633C3.08689 7.44126 3 7.71746 3 8C3.00044 8.37875 3.15667 8.74187 3.4344 9.00968C3.71214 9.2775 4.0887 9.42815 4.48148 9.42857ZM4.48148 7.28571C4.62799 7.28571 4.7712 7.32761 4.89301 7.40609C5.01483 7.48458 5.10977 7.59614 5.16584 7.72666C5.2219 7.85717 5.23657 8.00079 5.20799 8.13935C5.17941 8.27791 5.10886 8.40518 5.00526 8.50508C4.90167 8.60497 4.76968 8.673 4.62599 8.70056C4.4823 8.72812 4.33336 8.71398 4.19801 8.65991C4.06266 8.60585 3.94697 8.5143 3.86558 8.39684C3.78418 8.27937 3.74074 8.14127 3.74074 8C3.74096 7.81063 3.81907 7.62907 3.95794 7.49516C4.09681 7.36125 4.28509 7.28593 4.48148 7.28571ZM6.88889 11.2143H13V11.9286H6.88889V11.2143ZM4.48148 13C4.77449 13 5.06092 12.9162 5.30455 12.7592C5.54818 12.6023 5.73806 12.3792 5.85019 12.1181C5.96232 11.8571 5.99166 11.5698 5.9345 11.2927C5.87733 11.0156 5.73624 10.7611 5.52905 10.5613C5.32186 10.3615 5.05788 10.2254 4.7705 10.1703C4.48312 10.1152 4.18525 10.1435 3.91454 10.2516C3.64384 10.3597 3.41246 10.5428 3.24967 10.7778C3.08689 11.0127 3 11.2889 3 11.5714C3.00044 11.9502 3.15667 12.3133 3.4344 12.5811C3.71214 12.8489 4.0887 12.9996 4.48148 13ZM4.48148 10.8571C4.62799 10.8571 4.7712 10.899 4.89301 10.9775C5.01483 11.056 5.10977 11.1676 5.16584 11.2981C5.2219 11.4286 5.23657 11.5722 5.20799 11.7108C5.17941 11.8493 5.10886 11.9766 5.00526 12.0765C4.90167 12.1764 4.76968 12.2444 4.62599 12.272C4.4823 12.2996 4.33336 12.2854 4.19801 12.2313C4.06266 12.1773 3.94697 12.0857 3.86558 11.9683C3.78418 11.8508 3.74074 11.7127 3.74074 11.5714C3.74096 11.3821 3.81907 11.2005 3.95794 11.0666C4.09681 10.9327 4.28509 10.8574 4.48148 10.8571Z" fill="#070707"/>
</svg>
