<svg width="20" height="20" viewBox="0 0 20 20" fill="none" xmlns="http://www.w3.org/2000/svg">
<path d="M10 1.875C5.52 1.875 1.875 5.52 1.875 10C1.875 14.48 5.52 18.125 10 18.125C14.48 18.125 18.125 14.48 18.125 10C18.125 5.52 14.48 1.875 10 1.875ZM10 3.125C13.8044 3.125 16.875 6.19563 16.875 10C16.875 13.8044 13.8044 16.875 10 16.875C6.19563 16.875 3.125 13.8044 3.125 10C3.125 6.19563 6.19563 3.125 10 3.125ZM9.375 6.25V9.375H6.25V10.625H9.375V13.75H10.625V10.625H13.75V9.375H10.625V6.25H9.375Z" fill="#070707"/>
</svg>
