<svg width="16" height="16" viewBox="0 0 16 16" fill="none" xmlns="http://www.w3.org/2000/svg">
<path d="M5.3335 8.66667L8.15216 10.9213C8.28924 11.0308 8.46396 11.0819 8.63843 11.0634C8.81289 11.0449 8.97305 10.9584 9.08416 10.8227L14.6668 4" stroke="#2A85FF" stroke-width="1.33333" stroke-linecap="round"/>
<path fill-rule="evenodd" clip-rule="evenodd" d="M7.46008 8.158L10.5161 4.422C10.6248 4.28482 10.6752 4.11038 10.6564 3.93635C10.6376 3.76232 10.5512 3.60266 10.4157 3.49185C10.2802 3.38103 10.1065 3.32796 9.93222 3.34407C9.75793 3.36019 9.59696 3.44421 9.48408 3.578L6.43542 7.30466L7.46008 8.158ZM5.34875 10.738L4.32408 9.88466L3.88875 10.4167L1.73342 8.8C1.59197 8.69391 1.41417 8.64836 1.23914 8.67336C1.0641 8.69837 0.906171 8.79188 0.800084 8.93333C0.693998 9.07478 0.648446 9.25258 0.673451 9.42761C0.698456 9.60265 0.791969 9.76058 0.933417 9.86666L3.08875 11.4833C3.36389 11.6896 3.70811 11.7817 4.0495 11.7402C4.39089 11.6987 4.70304 11.5269 4.92075 11.2607L5.34875 10.738Z" fill="#2A85FF"/>
</svg>
