<svg width="21" height="16" viewBox="0 0 21 16" fill="none" xmlns="http://www.w3.org/2000/svg">
<g clip-path="url(#clip0_874_17806)">
<path d="M4.15562 15.9205V14.8615C4.15562 14.4555 3.90846 14.1908 3.48483 14.1908C3.27305 14.1908 3.04358 14.2614 2.88471 14.4908C2.76121 14.2967 2.58473 14.1908 2.31996 14.1908C2.1434 14.1908 1.967 14.2437 1.82573 14.4379V14.2261H1.45508V15.9205H1.82573V14.985C1.82573 14.685 1.98461 14.5438 2.23176 14.5438C2.47876 14.5438 2.60241 14.7026 2.60241 14.985V15.9205H2.97307V14.985C2.97307 14.685 3.14947 14.5438 3.37894 14.5438C3.62609 14.5438 3.74959 14.7026 3.74959 14.985V15.9205H4.15562ZM9.64475 14.2261H9.04471V13.7142H8.67405V14.2261H8.3387V14.5614H8.67397V15.338C8.67397 15.7264 8.83285 15.9558 9.25648 15.9558C9.41536 15.9558 9.59176 15.9029 9.71542 15.8323L9.60945 15.5145C9.50356 15.5851 9.38006 15.6028 9.29178 15.6028C9.1153 15.6028 9.04471 15.4969 9.04471 15.3204V14.5614H9.64475V14.2261ZM12.7865 14.1907C12.5748 14.1907 12.4336 14.2967 12.3453 14.4379V14.2261H11.9746V15.9205H12.3453V14.9674C12.3453 14.685 12.4688 14.5261 12.6983 14.5261C12.7688 14.5261 12.8571 14.5438 12.9277 14.5614L13.0336 14.2085C12.963 14.1908 12.8571 14.1908 12.7865 14.1908M8.03864 14.3674C7.86207 14.2438 7.615 14.1909 7.35023 14.1909C6.92668 14.1909 6.6443 14.4026 6.6443 14.738C6.6443 15.0205 6.85608 15.1793 7.22674 15.2322L7.40322 15.2499C7.59739 15.2851 7.70328 15.3381 7.70328 15.4264C7.70328 15.5499 7.56209 15.6382 7.31494 15.6382C7.06786 15.6382 6.87369 15.5499 6.75011 15.4617L6.57363 15.7441C6.7678 15.8853 7.03257 15.9559 7.29725 15.9559C7.79148 15.9559 8.07393 15.7265 8.07393 15.4087C8.07393 15.1087 7.84446 14.9498 7.49142 14.8969L7.31494 14.8792C7.15606 14.8615 7.03257 14.8263 7.03257 14.7204C7.03257 14.5968 7.15606 14.5262 7.35023 14.5262C7.56209 14.5262 7.77387 14.6144 7.87976 14.6674L8.03864 14.3674ZM17.8875 14.1909C17.6756 14.1909 17.5344 14.2968 17.4462 14.4379V14.2262H17.0755V15.9206H17.4462V14.9675C17.4462 14.6851 17.5697 14.5262 17.7991 14.5262C17.8698 14.5262 17.9581 14.5439 18.0287 14.5615L18.1346 14.2086C18.064 14.1909 17.9581 14.1909 17.8875 14.1909ZM13.1572 15.0734C13.1572 15.5852 13.5102 15.9559 14.0574 15.9559C14.3044 15.9559 14.4809 15.9029 14.6574 15.7618L14.4809 15.4617C14.3397 15.5676 14.1986 15.6205 14.0397 15.6205C13.7396 15.6205 13.5278 15.4087 13.5278 15.0734C13.5278 14.7557 13.7396 14.5438 14.0397 14.5262C14.1986 14.5262 14.3397 14.5791 14.4809 14.6851L14.6574 14.385C14.4809 14.2438 14.3044 14.1909 14.0574 14.1909C13.5102 14.1909 13.1572 14.5615 13.1572 15.0734ZM16.5814 15.0734V14.2262H16.2107V14.4379C16.0871 14.2792 15.9106 14.1909 15.6812 14.1909C15.2046 14.1909 14.834 14.5615 14.834 15.0734C14.834 15.5852 15.2046 15.9559 15.6812 15.9559C15.9282 15.9559 16.1048 15.8677 16.2107 15.7088V15.9206H16.5814V15.0734ZM15.2222 15.0734C15.2222 14.7733 15.4164 14.5262 15.7341 14.5262C16.0341 14.5262 16.246 14.7557 16.246 15.0734C16.246 15.3734 16.0341 15.6205 15.7341 15.6205C15.4164 15.6028 15.2222 15.3734 15.2222 15.0734ZM10.7921 14.1909C10.2979 14.1909 9.94481 14.5438 9.94481 15.0734C9.94481 15.6029 10.2978 15.9559 10.8097 15.9559C11.0568 15.9559 11.3039 15.8853 11.4981 15.7265L11.3215 15.4617C11.1803 15.5676 11.0039 15.6382 10.8274 15.6382C10.5979 15.6382 10.3684 15.5323 10.3155 15.2322H11.5687V15.091C11.5864 14.5438 11.2687 14.1909 10.7921 14.1909ZM10.792 14.5085C11.0214 14.5085 11.1803 14.6498 11.2156 14.9146H10.3331C10.3684 14.6851 10.5272 14.5085 10.792 14.5085ZM19.9877 15.0734V13.5555H19.6171V14.4379C19.4935 14.2792 19.317 14.1909 19.0876 14.1909C18.611 14.1909 18.2404 14.5615 18.2404 15.0734C18.2404 15.5852 18.611 15.9559 19.0876 15.9559C19.3347 15.9559 19.5112 15.8677 19.6171 15.7088V15.9206H19.9877V15.0734ZM18.6287 15.0734C18.6287 14.7733 18.8228 14.5262 19.1405 14.5262C19.4406 14.5262 19.6524 14.7557 19.6524 15.0734C19.6524 15.3734 19.4406 15.6205 19.1405 15.6205C18.8228 15.6028 18.6287 15.3734 18.6287 15.0734ZM6.23819 15.0734V14.2262H5.86754V14.4379C5.74396 14.2792 5.56748 14.1909 5.33801 14.1909C4.86147 14.1909 4.49082 14.5615 4.49082 15.0734C4.49082 15.5852 4.86147 15.9559 5.33801 15.9559C5.58517 15.9559 5.76165 15.8677 5.86754 15.7088V15.9206H6.23819V15.0734ZM4.86147 15.0734C4.86147 14.7733 5.05564 14.5262 5.37331 14.5262C5.67337 14.5262 5.88523 14.7557 5.88523 15.0734C5.88523 15.3734 5.67337 15.6205 5.37331 15.6205C5.05564 15.6028 4.86147 15.3734 4.86147 15.0734Z" fill="black"/>
<path d="M7.91602 1.35904H13.4758V11.3491H7.91602V1.35904Z" fill="#FF5F00"/>
<path d="M8.26845 6.35409C8.26845 4.32434 9.22154 2.52398 10.6865 1.35904C9.60988 0.511839 8.25085 0 6.76823 0C3.25571 0 0.414062 2.84165 0.414062 6.35409C0.414062 9.86645 3.25571 12.7082 6.76815 12.7082C8.25077 12.7082 9.6098 12.1963 10.6865 11.3491C9.22154 10.2018 8.26845 8.38384 8.26845 6.35409Z" fill="#EB001B"/>
<path d="M20.9755 6.35409C20.9755 9.86645 18.1339 12.7082 14.6214 12.7082C13.1388 12.7082 11.7798 12.1963 10.7031 11.3491C12.1857 10.1842 13.1212 8.38384 13.1212 6.35409C13.1212 4.32434 12.168 2.52398 10.7031 1.35904C11.7797 0.511839 13.1388 0 14.6214 0C18.1339 0 20.9755 2.85934 20.9755 6.35409Z" fill="#F79E1B"/>
</g>
<defs>
<clipPath id="clip0_874_17806">
<rect width="20.59" height="16" fill="white" transform="translate(0.410156)"/>
</clipPath>
</defs>
</svg>
