<svg width="24" height="24" viewBox="0 0 24 24" fill="none" xmlns="http://www.w3.org/2000/svg">
    <g clip-path="url(#clip0_806_9391)">
        <path
            d="M14.6483 15.6211C15.1796 15.8867 15.66 16.2188 16.0897 16.6172C16.5194 17.0156 16.8827 17.4766 17.1796 18H15.3397C14.9178 17.5234 14.4178 17.1562 13.8397 16.8984C13.2616 16.6406 12.6483 16.5078 11.9999 16.5C11.3749 16.5 10.7928 16.6172 10.2538 16.8516C9.71472 17.0859 9.23816 17.4062 8.8241 17.8125C8.41003 18.2188 8.08582 18.6992 7.85144 19.2539C7.61707 19.8086 7.49988 20.3906 7.49988 21H5.99988C5.99988 20.4297 6.078 19.8789 6.23425 19.3477C6.3905 18.8164 6.61316 18.3125 6.90222 17.8359C7.19128 17.3594 7.54675 16.9375 7.96863 16.5703C8.3905 16.2031 8.85144 15.8867 9.35144 15.6211C8.7655 15.1992 8.31238 14.6719 7.99207 14.0391C7.67175 13.4062 7.50769 12.7266 7.49988 12C7.49988 11.5859 7.42175 11.1992 7.2655 10.8398C7.10925 10.4805 6.89441 10.1602 6.62097 9.87891C6.34753 9.59766 6.03113 9.38281 5.67175 9.23438C5.31238 9.08594 4.92175 9.00781 4.49988 9C4.08582 9 3.6991 9.07812 3.33972 9.23438C2.98035 9.39062 2.66003 9.60547 2.37878 9.87891C2.09753 10.1523 1.88269 10.4688 1.73425 10.8281C1.58582 11.1875 1.50769 11.5781 1.49988 12H-0.00012207C-0.00012207 11.5938 0.0545654 11.1953 0.16394 10.8047C0.273315 10.4141 0.425659 10.0508 0.620972 9.71484C0.816284 9.37891 1.06238 9.06641 1.35925 8.77734C1.65613 8.48828 1.98035 8.25 2.33191 8.0625C2.06628 7.78906 1.86316 7.47266 1.72253 7.11328C1.58191 6.75391 1.50769 6.38281 1.49988 6C1.49988 5.58594 1.578 5.19922 1.73425 4.83984C1.8905 4.48047 2.10535 4.16016 2.37878 3.87891C2.65222 3.59766 2.96863 3.38281 3.328 3.23438C3.68738 3.08594 4.078 3.00781 4.49988 3C4.91394 3 5.30066 3.07812 5.66003 3.23438C6.01941 3.39062 6.33972 3.60547 6.62097 3.87891C6.90222 4.15234 7.11707 4.46875 7.2655 4.82812C7.41394 5.1875 7.49207 5.57812 7.49988 6C7.49988 6.38281 7.42957 6.75391 7.28894 7.11328C7.14832 7.47266 6.94128 7.78906 6.66785 8.0625C6.99597 8.24219 7.28894 8.45703 7.54675 8.70703C7.80457 8.95703 8.03894 9.23047 8.24988 9.52734C8.46082 9.21484 8.703 8.93359 8.97644 8.68359C9.24988 8.43359 9.54675 8.22266 9.86707 8.05078C10.1874 7.87891 10.5272 7.74219 10.8866 7.64062C11.246 7.53906 11.6171 7.49219 11.9999 7.5C12.3749 7.5 12.7421 7.54688 13.1014 7.64062C13.4608 7.73438 13.8007 7.86719 14.121 8.03906C14.4413 8.21094 14.7421 8.42578 15.0233 8.68359C15.3046 8.94141 15.5468 9.22266 15.7499 9.52734C15.953 9.23047 16.1835 8.95703 16.4413 8.70703C16.6991 8.45703 16.996 8.24219 17.3319 8.0625C17.0663 7.78906 16.8632 7.47266 16.7225 7.11328C16.5819 6.75391 16.5077 6.38281 16.4999 6C16.4999 5.58594 16.578 5.19922 16.7343 4.83984C16.8905 4.48047 17.1053 4.16016 17.3788 3.87891C17.6522 3.59766 17.9686 3.38281 18.328 3.23438C18.6874 3.08594 19.078 3.00781 19.4999 3C19.9139 3 20.3007 3.07812 20.66 3.23438C21.0194 3.39062 21.3397 3.60547 21.621 3.87891C21.9022 4.15234 22.1171 4.46875 22.2655 4.82812C22.4139 5.1875 22.4921 5.57812 22.4999 6C22.4999 6.38281 22.4296 6.75391 22.2889 7.11328C22.1483 7.47266 21.9413 7.78906 21.6678 8.0625C22.0272 8.25781 22.3514 8.49609 22.6405 8.77734C22.9296 9.05859 23.1718 9.36719 23.3671 9.70312C23.5624 10.0391 23.7186 10.4062 23.8358 10.8047C23.953 11.2031 24.0077 11.6016 23.9999 12H22.4999C22.4999 11.5859 22.4218 11.1992 22.2655 10.8398C22.1093 10.4805 21.8944 10.1602 21.621 9.87891C21.3475 9.59766 21.0311 9.38281 20.6718 9.23438C20.3124 9.08594 19.9218 9.00781 19.4999 9C19.0858 9 18.6991 9.07812 18.3397 9.23438C17.9803 9.39062 17.66 9.60547 17.3788 9.87891C17.0975 10.1523 16.8827 10.4688 16.7343 10.8281C16.5858 11.1875 16.5077 11.5781 16.4999 12C16.4999 12.7188 16.3397 13.3945 16.0194 14.0273C15.6991 14.6602 15.2421 15.1914 14.6483 15.6211ZM19.4999 4.5C19.2889 4.5 19.0936 4.53906 18.9139 4.61719C18.7343 4.69531 18.578 4.80078 18.4452 4.93359C18.3124 5.06641 18.203 5.22656 18.1171 5.41406C18.0311 5.60156 17.9921 5.79688 17.9999 6C17.9999 6.21094 18.0389 6.40625 18.1171 6.58594C18.1952 6.76562 18.3007 6.92188 18.4335 7.05469C18.5663 7.1875 18.7264 7.29688 18.9139 7.38281C19.1014 7.46875 19.2968 7.50781 19.4999 7.5C19.7108 7.5 19.9061 7.46094 20.0858 7.38281C20.2655 7.30469 20.4218 7.19922 20.5546 7.06641C20.6874 6.93359 20.7968 6.77344 20.8827 6.58594C20.9686 6.39844 21.0077 6.20312 20.9999 6C20.9999 5.78906 20.9608 5.59375 20.8827 5.41406C20.8046 5.23438 20.6991 5.07812 20.5663 4.94531C20.4335 4.8125 20.2733 4.70312 20.0858 4.61719C19.8983 4.53125 19.703 4.49219 19.4999 4.5ZM4.49988 7.5C4.71082 7.5 4.90613 7.46094 5.08582 7.38281C5.2655 7.30469 5.42175 7.19922 5.55457 7.06641C5.68738 6.93359 5.79675 6.77344 5.88269 6.58594C5.96863 6.39844 6.00769 6.20312 5.99988 6C5.99988 5.78906 5.96082 5.59375 5.88269 5.41406C5.80457 5.23438 5.6991 5.07812 5.56628 4.94531C5.43347 4.8125 5.27332 4.70312 5.08582 4.61719C4.89832 4.53125 4.703 4.49219 4.49988 4.5C4.28894 4.5 4.09363 4.53906 3.91394 4.61719C3.73425 4.69531 3.578 4.80078 3.44519 4.93359C3.31238 5.06641 3.203 5.22656 3.11707 5.41406C3.03113 5.60156 2.99207 5.79688 2.99988 6C2.99988 6.21094 3.03894 6.40625 3.11707 6.58594C3.19519 6.76562 3.30066 6.92188 3.43347 7.05469C3.56628 7.1875 3.72644 7.29688 3.91394 7.38281C4.10144 7.46875 4.29675 7.50781 4.49988 7.5ZM11.9999 15C12.4139 15 12.8007 14.9219 13.16 14.7656C13.5194 14.6094 13.8397 14.3945 14.121 14.1211C14.4022 13.8477 14.6171 13.5312 14.7655 13.1719C14.9139 12.8125 14.9921 12.4219 14.9999 12C14.9999 11.5859 14.9218 11.1992 14.7655 10.8398C14.6093 10.4805 14.3944 10.1602 14.121 9.87891C13.8475 9.59766 13.5311 9.38281 13.1718 9.23438C12.8124 9.08594 12.4218 9.00781 11.9999 9C11.5858 9 11.1991 9.07812 10.8397 9.23438C10.4803 9.39062 10.16 9.60547 9.87878 9.87891C9.59753 10.1523 9.38269 10.4688 9.23425 10.8281C9.08582 11.1875 9.00769 11.5781 8.99988 12C8.99988 12.4141 9.078 12.8008 9.23425 13.1602C9.3905 13.5195 9.60535 13.8398 9.87878 14.1211C10.1522 14.4023 10.4686 14.6172 10.828 14.7656C11.1874 14.9141 11.578 14.9922 11.9999 15ZM20.9999 19.5H23.9999V21H20.9999V24H19.4999V21H16.4999V19.5H19.4999V16.5H20.9999V19.5Z"
            fill="#070707" />
    </g>
    <defs>
        <clipPath id="clip0_806_9391">
            <rect width="24" height="24" fill="white" />
        </clipPath>
    </defs>
</svg>