<svg width="20" height="20" viewBox="0 0 20 20" fill="none" xmlns="http://www.w3.org/2000/svg">
    <path
        d="M9.99988 19C14.9704 19 18.9999 14.9706 18.9999 10C18.9999 5.02947 14.9704 1.00003 9.99988 1.00003C5.02931 1.00003 0.999878 5.02947 0.999878 10C0.999878 14.9706 5.02931 19 9.99988 19Z"
        stroke="#070707" stroke-width="1.5" stroke-linecap="round" stroke-linejoin="round" />
    <path
        d="M9.30676 7.73905L12.9998 7.00005L12.2608 10.693C12.1834 11.0801 11.9932 11.4356 11.7142 11.7148C11.4352 11.994 11.0798 12.1844 10.6928 12.262L6.99976 13L7.73876 9.30705C7.81629 8.92016 8.00654 8.56485 8.28555 8.28584C8.56456 8.00683 8.91987 7.81658 9.30676 7.73905Z"
        stroke="#070707" stroke-width="1.5" stroke-linecap="round" stroke-linejoin="round" />
</svg>