<svg width="40" height="40" viewBox="0 0 40 40" fill="none" xmlns="http://www.w3.org/2000/svg">
<path fill-rule="evenodd" clip-rule="evenodd" d="M12.662 7.47833C13.107 5.295 15.0504 3.75 17.2754 3.75H22.722C24.947 3.75 26.8887 5.295 27.3354 7.47833C27.3846 7.71875 27.5133 7.93562 27.7007 8.09403C27.8882 8.25244 28.1234 8.34319 28.3687 8.35167H28.4237C30.762 8.455 32.5587 8.74167 34.0587 9.72667C35.0037 10.3467 35.817 11.1433 36.4504 12.075C37.2387 13.2317 37.5854 14.5617 37.752 16.1683C37.9154 17.74 37.9154 19.7083 37.9154 22.2017V22.3433C37.9154 24.8367 37.9154 26.8067 37.752 28.3767C37.5854 29.9833 37.2387 31.3133 36.4504 32.4717C35.815 33.4039 35.0024 34.2018 34.0587 34.82C32.887 35.5883 31.542 35.9283 29.912 36.09C28.3154 36.25 26.3137 36.25 23.7704 36.25H16.227C13.6837 36.25 11.682 36.25 10.0854 36.09C8.45537 35.9283 7.11036 35.59 5.9387 34.82C4.99488 34.2013 4.18218 33.4028 3.54703 32.47C2.7587 31.3133 2.41203 29.9833 2.24536 28.3767C2.08203 26.8067 2.08203 24.8367 2.08203 22.3433V22.2017C2.08203 19.7083 2.08203 17.74 2.24536 16.1683C2.41203 14.5617 2.7587 13.2317 3.54703 12.075C4.18218 11.1422 4.99488 10.3437 5.9387 9.725C7.4387 8.74167 9.23537 8.455 11.5737 8.35333L11.602 8.35167H11.6287C11.874 8.34319 12.1092 8.25244 12.2967 8.09403C12.4841 7.93562 12.6128 7.71875 12.662 7.47833ZM17.2754 6.25C16.2087 6.25 15.3137 6.98833 15.112 7.97667C14.787 9.57667 13.367 10.8367 11.6587 10.8517C9.41203 10.9517 8.2087 11.2267 7.3087 11.8167C6.64016 12.2554 6.06427 12.8211 5.6137 13.4817C5.1537 14.1567 4.87703 15.0217 4.73036 16.4267C4.5837 17.8533 4.58203 19.6933 4.58203 22.2733C4.58203 24.8533 4.58203 26.6917 4.73203 28.1183C4.87703 29.5233 5.1537 30.3883 5.61536 31.065C6.06203 31.7217 6.63703 32.2883 7.31037 32.73C8.00536 33.185 8.89537 33.46 10.3337 33.6033C11.7904 33.7483 13.667 33.75 16.2954 33.75H23.702C26.3287 33.75 28.2054 33.75 29.6637 33.6033C31.102 33.46 31.992 33.1867 32.687 32.73C33.3604 32.2883 33.937 31.7217 34.3837 31.0633C34.8437 30.3883 35.1204 29.5233 35.267 28.1183C35.4137 26.6917 35.4154 24.8517 35.4154 22.2733C35.4154 19.6933 35.4154 17.8533 35.2654 16.4267C35.1204 15.0217 34.8437 14.1567 34.382 13.4817C33.932 12.8202 33.356 12.2539 32.687 11.815C31.7904 11.2267 30.587 10.9517 28.337 10.8517C26.6304 10.835 25.2104 9.57833 24.8854 7.97667C24.7787 7.48379 24.5052 7.04282 24.1111 6.72824C23.7169 6.41365 23.2263 6.24473 22.722 6.25H17.2754ZM19.9987 17.9167C19.0041 17.9167 18.0503 18.3118 17.347 19.015C16.6438 19.7183 16.2487 20.6721 16.2487 21.6667C16.2487 22.6612 16.6438 23.6151 17.347 24.3183C18.0503 25.0216 19.0041 25.4167 19.9987 25.4167C20.9933 25.4167 21.9471 25.0216 22.6503 24.3183C23.3536 23.6151 23.7487 22.6612 23.7487 21.6667C23.7487 20.6721 23.3536 19.7183 22.6503 19.015C21.9471 18.3118 20.9933 17.9167 19.9987 17.9167ZM13.7487 21.6667C13.7487 20.0091 14.4072 18.4194 15.5793 17.2472C16.7514 16.0751 18.3411 15.4167 19.9987 15.4167C21.6563 15.4167 23.246 16.0751 24.4181 17.2472C25.5902 18.4194 26.2487 20.0091 26.2487 21.6667C26.2487 23.3243 25.5902 24.914 24.4181 26.0861C23.246 27.2582 21.6563 27.9167 19.9987 27.9167C18.3411 27.9167 16.7514 27.2582 15.5793 26.0861C14.4072 24.914 13.7487 23.3243 13.7487 21.6667ZM28.7487 16.6667C28.7487 16.3351 28.8804 16.0172 29.1148 15.7828C29.3492 15.5484 29.6672 15.4167 29.9987 15.4167H31.6654C31.9969 15.4167 32.3148 15.5484 32.5492 15.7828C32.7837 16.0172 32.9154 16.3351 32.9154 16.6667C32.9154 16.9982 32.7837 17.3161 32.5492 17.5505C32.3148 17.785 31.9969 17.9167 31.6654 17.9167H29.9987C29.6672 17.9167 29.3492 17.785 29.1148 17.5505C28.8804 17.3161 28.7487 16.9982 28.7487 16.6667Z" fill="#2A85FF"/>
</svg>
