<svg width="16" height="16" viewBox="0 0 16 16" fill="none" xmlns="http://www.w3.org/2000/svg">
<path d="M14.2357 1.76394C13.9923 1.52051 13.7033 1.3274 13.3853 1.19565C13.0673 1.0639 12.7264 0.996094 12.3822 0.996094C12.0379 0.996094 11.6971 1.0639 11.379 1.19565C11.061 1.3274 10.772 1.52051 10.5287 1.76394L2.65665 9.63594C2.28278 10.0101 2.01618 10.4777 1.88465 10.9899L1.01465 14.3759C0.993079 14.4602 0.993851 14.5486 1.01689 14.6325C1.03994 14.7163 1.08446 14.7927 1.14605 14.8541C1.20765 14.9155 1.28419 14.9598 1.36812 14.9825C1.45206 15.0053 1.54048 15.0058 1.62465 14.9839L5.00965 14.1149C5.52204 13.9836 5.98969 13.717 6.36365 13.3429L14.2357 5.47094C14.4791 5.22755 14.6722 4.93859 14.8039 4.62057C14.9357 4.30254 15.0035 3.96168 15.0035 3.61744C15.0035 3.2732 14.9357 2.93234 14.8039 2.61431C14.6722 2.29629 14.4791 2.00733 14.2357 1.76394ZM11.2357 2.47094C11.5397 2.16687 11.9521 1.99604 12.3822 1.99604C12.8122 1.99604 13.2246 2.16687 13.5287 2.47094C13.8327 2.77501 14.0035 3.18742 14.0035 3.61744C14.0035 4.04746 13.8327 4.45987 13.5287 4.76394L12.7497 5.54294L10.4567 3.24994L11.2357 2.47094ZM9.74965 3.95694L12.0427 6.24994L5.65665 12.6359C5.40903 12.8831 5.09959 13.0592 4.76065 13.1459L2.19365 13.8059L2.85365 11.2389C2.93973 10.8997 3.11595 10.5901 3.36365 10.3429L9.74965 3.95694Z" fill="#2A85FF"/>
</svg>
