<svg width="16" height="16" viewBox="0 0 16 16" fill="none" xmlns="http://www.w3.org/2000/svg">
<path d="M3.73333 13.28L4.74933 12.4674L4.756 12.462C4.968 12.292 5.07533 12.2067 5.19467 12.146C5.30133 12.0914 5.41533 12.0514 5.53333 12.0274C5.666 12 5.804 12 6.08133 12H11.8687C12.614 12 12.9873 12 13.272 11.8547C13.5229 11.7269 13.7268 11.5229 13.8547 11.272C14 10.9867 14 10.6134 14 9.86935V4.79802C14 4.05269 14 3.67935 13.8547 3.39469C13.7266 3.14374 13.5224 2.93977 13.2713 2.81202C12.9867 2.66669 12.6133 2.66669 11.8667 2.66669H4.13333C3.38667 2.66669 3.01333 2.66669 2.728 2.81202C2.4771 2.93981 2.27313 3.14379 2.14533 3.39469C2 3.68002 2 4.05335 2 4.80002V12.4474C2 13.158 2 13.5134 2.14533 13.6954C2.20783 13.7738 2.28722 13.8372 2.3776 13.8807C2.46799 13.9242 2.56702 13.9468 2.66733 13.9467C2.90067 13.9467 3.178 13.724 3.73333 13.28Z" stroke="#59ACFF" stroke-width="1.33333" stroke-linecap="round" stroke-linejoin="round"/>
</svg>
