<svg width="16" height="16" viewBox="0 0 16 16" fill="none" xmlns="http://www.w3.org/2000/svg">
<path d="M8.00186 1.98642C8.00533 2.03884 7.99845 2.09144 7.98159 2.14121C7.96474 2.19097 7.93824 2.23692 7.90362 2.27645C7.86901 2.31597 7.82694 2.34829 7.77983 2.37155C7.73272 2.39481 7.68148 2.40856 7.62906 2.41202C6.55543 2.48339 5.52509 2.86255 4.6613 3.50415C3.79751 4.14576 3.13686 5.02263 2.75837 6.02987C2.37988 7.0371 2.29959 8.13205 2.5271 9.18373C2.7546 10.2354 3.28027 11.1993 4.04122 11.96C4.80217 12.7208 5.76618 13.2462 6.81792 13.4734C7.86965 13.7006 8.96458 13.62 9.97172 13.2413C10.9789 12.8625 11.8555 12.2016 12.4969 11.3377C13.1383 10.4737 13.5172 9.44327 13.5883 8.36962C13.5917 8.31719 13.6054 8.26596 13.6286 8.21883C13.6518 8.1717 13.6841 8.12961 13.7236 8.09496C13.763 8.0603 13.809 8.03376 13.8587 8.01686C13.9085 7.99995 13.961 7.993 14.0135 7.99642C14.0659 7.99983 14.1171 8.01354 14.1642 8.03676C14.2114 8.05997 14.2535 8.09224 14.2881 8.13173C14.3228 8.17121 14.3493 8.21713 14.3662 8.26687C14.3831 8.31661 14.3901 8.36919 14.3867 8.42162C14.3056 9.64873 13.8726 10.8265 13.1397 11.814C12.4067 12.8015 11.4048 13.5569 10.2537 13.9899C9.10266 14.4228 7.85124 14.515 6.64918 14.2553C5.44712 13.9956 4.34533 13.3951 3.47564 12.5256C2.60594 11.6561 2.00517 10.5545 1.74521 9.35247C1.48525 8.15047 1.5771 6.89902 2.00978 5.74786C2.44246 4.5967 3.19765 3.59458 4.18497 2.86139C5.1723 2.1282 6.34996 1.695 7.57706 1.61362C7.6828 1.60682 7.78693 1.64225 7.86657 1.71215C7.94621 1.78204 7.99487 1.88068 8.00186 1.98642ZM8.80586 2.04002C8.81626 1.98846 8.83673 1.93947 8.8661 1.89583C8.89546 1.8522 8.93314 1.81478 8.97699 1.78573C9.02083 1.75667 9.06997 1.73655 9.12159 1.72651C9.17322 1.71647 9.22632 1.71671 9.27786 1.72722C9.72586 1.81762 10.1563 1.95522 10.5643 2.13442C10.614 2.15434 10.6592 2.18404 10.6972 2.22176C10.7353 2.25948 10.7653 2.30446 10.7856 2.35402C10.8059 2.40358 10.8161 2.45671 10.8155 2.51027C10.8149 2.56383 10.8035 2.61673 10.7821 2.66581C10.7607 2.7149 10.7296 2.75918 10.6907 2.79603C10.6518 2.83288 10.606 2.86155 10.5558 2.88033C10.5056 2.89912 10.4522 2.90764 10.3987 2.90538C10.3452 2.90313 10.2927 2.89015 10.2443 2.86722C9.88277 2.7089 9.50544 2.58956 9.11866 2.51122C9.06717 2.50072 9.01826 2.48019 8.97472 2.45078C8.93117 2.42138 8.89385 2.38369 8.86488 2.33985C8.8359 2.29602 8.81585 2.24691 8.80586 2.19533C8.79587 2.14374 8.79614 2.0907 8.80666 2.03922M13.8699 5.44162C13.8488 5.39345 13.8186 5.34989 13.7807 5.31343C13.7429 5.27697 13.6982 5.24832 13.6493 5.22911C13.6004 5.20991 13.5481 5.20053 13.4956 5.20151C13.4431 5.20249 13.3912 5.21381 13.3431 5.23482C13.2949 5.25583 13.2513 5.28612 13.2149 5.32397C13.1784 5.36181 13.1498 5.40647 13.1306 5.45539C13.1114 5.50431 13.102 5.55653 13.103 5.60907C13.1039 5.66161 13.1152 5.71345 13.1363 5.76162C13.2915 6.11602 13.4107 6.48962 13.4891 6.87922C13.5103 6.98318 13.5719 7.07446 13.6604 7.13297C13.749 7.19148 13.8571 7.21244 13.9611 7.19122C14.065 7.17 14.1563 7.10835 14.2148 7.01984C14.2733 6.93132 14.2943 6.82318 14.2731 6.71922C14.184 6.28034 14.0489 5.85209 13.8699 5.44162ZM11.5331 3.13122C11.6011 3.04989 11.6986 2.99889 11.8042 2.98944C11.9098 2.97999 12.0149 3.01286 12.0963 3.08082C12.4067 3.33922 12.6931 3.62722 12.9499 3.94002C12.9832 3.98062 13.0082 4.0274 13.0235 4.07768C13.0388 4.12796 13.044 4.18075 13.0389 4.23305C13.0338 4.28535 13.0184 4.33612 12.9936 4.38248C12.9689 4.42884 12.9353 4.46986 12.8947 4.50322C12.8541 4.53657 12.8073 4.56161 12.757 4.57688C12.7067 4.59216 12.6539 4.59739 12.6016 4.59226C12.5493 4.58714 12.4986 4.57176 12.4522 4.54701C12.4058 4.52226 12.3648 4.48862 12.3315 4.44802C12.1066 4.17414 11.8565 3.92209 11.5843 3.69522C11.5438 3.66158 11.5104 3.6203 11.4859 3.57373C11.4615 3.52716 11.4464 3.47623 11.4417 3.42384C11.4369 3.37145 11.4425 3.31864 11.4582 3.26843C11.4739 3.21821 11.4993 3.17159 11.5331 3.13122ZM8.00026 4.40002C8.00026 4.29393 7.95812 4.19219 7.8831 4.11718C7.80809 4.04216 7.70634 4.00002 7.60026 4.00002C7.49417 4.00002 7.39243 4.04216 7.31741 4.11718C7.2424 4.19219 7.20026 4.29393 7.20026 4.40002V8.40002C7.20026 8.5061 7.2424 8.60785 7.31741 8.68286C7.39243 8.75788 7.49417 8.80002 7.60026 8.80002H10.0003C10.1063 8.80002 10.2081 8.75788 10.2831 8.68286C10.3581 8.60785 10.4003 8.5061 10.4003 8.40002C10.4003 8.29393 10.3581 8.19219 10.2831 8.11718C10.2081 8.04216 10.1063 8.00002 10.0003 8.00002H8.00026V4.40002Z" fill="#070707"/>
</svg>
