<svg width="20" height="20" viewBox="0 0 20 20" fill="none" xmlns="http://www.w3.org/2000/svg">
<path d="M6.25033 2.91663C5.91881 2.91663 5.60086 3.04832 5.36644 3.28274C5.13202 3.51716 5.00033 3.83511 5.00033 4.16663C5.00033 4.49815 5.13202 4.81609 5.36644 5.05051C5.60086 5.28493 5.91881 5.41663 6.25033 5.41663C6.58185 5.41663 6.89979 5.28493 7.13421 5.05051C7.36863 4.81609 7.50033 4.49815 7.50033 4.16663C7.50033 3.83511 7.36863 3.51716 7.13421 3.28274C6.89979 3.04832 6.58185 2.91663 6.25033 2.91663ZM3.75033 4.16663C3.75033 3.50358 4.01372 2.8677 4.48256 2.39886C4.9514 1.93002 5.58728 1.66663 6.25033 1.66663C6.91337 1.66663 7.54925 1.93002 8.01809 2.39886C8.48693 2.8677 8.75033 3.50358 8.75033 4.16663C8.75033 4.82967 8.48693 5.46555 8.01809 5.93439C7.54925 6.40323 6.91337 6.66663 6.25033 6.66663C5.58728 6.66663 4.9514 6.40323 4.48256 5.93439C4.01372 5.46555 3.75033 4.82967 3.75033 4.16663ZM3.14033 7.49996C2.32533 7.49996 1.66699 8.15913 1.66699 8.97329V9.27329C1.66699 9.44579 1.66699 10.4466 2.25033 11.4191C2.70699 12.1775 3.48116 12.8583 4.72949 13.1633C4.90046 12.7088 5.21008 12.3196 5.61449 12.0508C4.27866 11.9083 3.64699 11.315 3.32283 10.7758C2.91949 10.1041 2.91699 9.38913 2.91699 9.27079V8.97329C2.91699 8.84996 3.01699 8.74996 3.14033 8.74996H6.69199C6.74704 8.30929 6.89015 7.88419 7.11283 7.49996H3.14033ZM12.8878 7.49996C13.1053 7.87663 13.252 8.29913 13.3078 8.74996H16.8603C16.9837 8.74996 17.0837 8.84996 17.0837 8.97329V9.27079C17.0837 9.38913 17.0812 10.1041 16.6778 10.775C16.3537 11.315 15.722 11.9083 14.3862 12.0508C14.7862 12.3175 15.0995 12.7058 15.2712 13.1633C16.5195 12.8583 17.2937 12.1775 17.7495 11.4191C18.3337 10.4466 18.3337 9.44663 18.3337 9.27246V8.97246C18.3337 8.15996 17.6745 7.49996 16.8603 7.49996H12.8878ZM12.5003 4.16663C12.5003 3.83511 12.632 3.51716 12.8664 3.28274C13.1009 3.04832 13.4188 2.91663 13.7503 2.91663C14.0818 2.91663 14.3998 3.04832 14.6342 3.28274C14.8686 3.51716 15.0003 3.83511 15.0003 4.16663C15.0003 4.49815 14.8686 4.81609 14.6342 5.05051C14.3998 5.28493 14.0818 5.41663 13.7503 5.41663C13.4188 5.41663 13.1009 5.28493 12.8664 5.05051C12.632 4.81609 12.5003 4.49815 12.5003 4.16663ZM13.7503 1.66663C13.0873 1.66663 12.4514 1.93002 11.9826 2.39886C11.5137 2.8677 11.2503 3.50358 11.2503 4.16663C11.2503 4.82967 11.5137 5.46555 11.9826 5.93439C12.4514 6.40323 13.0873 6.66663 13.7503 6.66663C14.4134 6.66663 15.0493 6.40323 15.5181 5.93439C15.9869 5.46555 16.2503 4.82967 16.2503 4.16663C16.2503 3.50358 15.9869 2.8677 15.5181 2.39886C15.0493 1.93002 14.4134 1.66663 13.7503 1.66663ZM10.0003 7.91663C9.83617 7.91663 9.67363 7.94896 9.52197 8.01178C9.37031 8.07459 9.23252 8.16667 9.11644 8.28274C9.00037 8.39882 8.90829 8.53661 8.84548 8.68827C8.78266 8.83993 8.75033 9.00247 8.75033 9.16663C8.75033 9.33078 8.78266 9.49332 8.84548 9.64498C8.90829 9.79664 9.00037 9.93444 9.11644 10.0505C9.23252 10.1666 9.37031 10.2587 9.52197 10.3215C9.67363 10.3843 9.83617 10.4166 10.0003 10.4166C10.3318 10.4166 10.6498 10.2849 10.8842 10.0505C11.1186 9.81609 11.2503 9.49815 11.2503 9.16663C11.2503 8.83511 11.1186 8.51716 10.8842 8.28274C10.6498 8.04832 10.3318 7.91663 10.0003 7.91663ZM7.50033 9.16663C7.50033 8.50358 7.76372 7.8677 8.23256 7.39886C8.7014 6.93002 9.33728 6.66663 10.0003 6.66663C10.6634 6.66663 11.2993 6.93002 11.7681 7.39886C12.2369 7.8677 12.5003 8.50358 12.5003 9.16663C12.5003 9.82967 12.2369 10.4656 11.7681 10.9344C11.2993 11.4032 10.6634 11.6666 10.0003 11.6666C9.33728 11.6666 8.7014 11.4032 8.23256 10.9344C7.76372 10.4656 7.50033 9.82967 7.50033 9.16663ZM5.41699 13.9733C5.41699 13.1583 6.07616 12.5 6.89033 12.5H13.1103C13.9245 12.5 14.5837 13.1591 14.5837 13.9733V14.2733C14.5837 14.4458 14.5837 15.4466 14.0003 16.4191C13.3812 17.4475 12.1778 18.3333 10.0003 18.3333C7.82283 18.3333 6.61866 17.4475 6.00033 16.4191C5.41699 15.4466 5.41699 14.4466 5.41699 14.2725V13.9733ZM6.89033 13.75C6.861 13.75 6.83196 13.7557 6.80486 13.767C6.77776 13.7782 6.75314 13.7946 6.73241 13.8154C6.71167 13.8361 6.69522 13.8607 6.68399 13.8878C6.67277 13.9149 6.66699 13.944 6.66699 13.9733V14.2708C6.66699 14.3891 6.66949 15.1041 7.07283 15.775C7.44449 16.3941 8.22033 17.0833 10.0003 17.0833C11.7803 17.0833 12.5562 16.3941 12.9278 15.775C13.3312 15.1041 13.3337 14.3891 13.3337 14.2708V13.9733C13.3337 13.9141 13.3101 13.8573 13.2682 13.8154C13.2264 13.7735 13.1696 13.75 13.1103 13.75H6.89033Z" fill="#070707"/>
</svg>
