<svg width="16" height="16" viewBox="0 0 16 16" fill="none" xmlns="http://www.w3.org/2000/svg">
<path d="M14 14L11.1047 11.1047M11.1047 11.1047C11.5999 10.6094 11.9928 10.0215 12.2608 9.37436C12.5289 8.72728 12.6668 8.03373 12.6668 7.33333C12.6668 6.63293 12.5289 5.93939 12.2608 5.2923C11.9928 4.64522 11.5999 4.05726 11.1047 3.562C10.6094 3.06674 10.0215 2.67388 9.37438 2.40585C8.72729 2.13782 8.03375 1.99986 7.33335 1.99986C6.63295 1.99986 5.9394 2.13782 5.29232 2.40585C4.64523 2.67388 4.05727 3.06674 3.56202 3.562C2.5618 4.56222 1.99988 5.91881 1.99988 7.33333C1.99988 8.74786 2.5618 10.1044 3.56202 11.1047C4.56224 12.1049 5.91882 12.6668 7.33335 12.6668C8.74787 12.6668 10.1045 12.1049 11.1047 11.1047Z" stroke="#A1A1A1" stroke-linecap="round" stroke-linejoin="round"/>
</svg>
