<svg width="22" height="22" viewBox="0 0 22 22" fill="none" xmlns="http://www.w3.org/2000/svg">
<mask id="mask0_873_11432" style="mask-type:luminance" maskUnits="userSpaceOnUse" x="0" y="0" width="22" height="22">
<path d="M8.142 20.5855C6.48803 20.0917 4.99009 19.178 3.794 17.9335C4.17884 17.4771 4.41874 16.9162 4.483 16.3226C4.54726 15.7291 4.43296 15.1299 4.15472 14.6016C3.87649 14.0734 3.44698 13.6402 2.92115 13.3575C2.39531 13.0747 1.79708 12.9553 1.203 13.0145C1.06766 12.3516 0.999648 11.6766 1 11C1 9.95501 1.16 8.94701 1.458 8.00001H1.5C2.00988 8.00017 2.51139 7.87038 2.95717 7.62289C3.40295 7.37539 3.7783 7.01836 4.04777 6.58551C4.31724 6.15265 4.47194 5.65826 4.49726 5.14901C4.52259 4.63976 4.4177 4.13246 4.1925 3.67501C5.3648 2.58342 6.78253 1.78992 8.326 1.36151C8.57719 1.85471 8.95992 2.26881 9.43186 2.55799C9.90379 2.84716 10.4465 3.00015 11 3.00001C11.5535 3.00015 12.0962 2.84716 12.5681 2.55799C13.0401 2.26881 13.4228 1.85471 13.674 1.36151C15.2175 1.78992 16.6352 2.58342 17.8075 3.67501C17.5807 4.13567 17.4759 4.64684 17.5031 5.15959C17.5304 5.67234 17.6888 6.16952 17.9632 6.60352C18.2376 7.03753 18.6188 7.39384 19.0703 7.63835C19.5219 7.88287 20.0286 8.00739 20.542 8.00001C20.8465 8.97087 21.0009 9.98253 21 11C21 11.69 20.93 12.364 20.797 13.015C20.2029 12.9558 19.6047 13.0752 19.0789 13.358C18.553 13.6407 18.1235 14.0739 17.8453 14.6021C17.567 15.1304 17.4527 15.7296 17.517 16.3231C17.5813 16.9167 17.8212 17.4776 18.206 17.934C17.0099 19.1784 15.5119 20.0918 13.858 20.5855C13.6638 19.9802 13.2824 19.4521 12.7687 19.0775C12.2551 18.7028 11.6357 18.501 11 18.501C10.3643 18.501 9.74493 18.7028 9.23129 19.0775C8.71765 19.4521 8.33623 19.9802 8.142 20.5855Z" fill="white" stroke="white" stroke-width="2" stroke-linejoin="round"/>
<path d="M11 14.4999C11.4596 14.4999 11.9148 14.4094 12.3394 14.2335C12.764 14.0576 13.1499 13.7998 13.4749 13.4748C13.7999 13.1498 14.0577 12.764 14.2336 12.3393C14.4095 11.9147 14.5 11.4596 14.5 10.9999C14.5 10.5403 14.4095 10.0852 14.2336 9.66055C14.0577 9.23591 13.7999 8.85007 13.4749 8.52507C13.1499 8.20006 12.764 7.94225 12.3394 7.76636C11.9148 7.59047 11.4596 7.49994 11 7.49994C10.0717 7.49994 9.1815 7.86869 8.52513 8.52507C7.86875 9.18144 7.5 10.0717 7.5 10.9999C7.5 11.9282 7.86875 12.8184 8.52513 13.4748C9.1815 14.1312 10.0717 14.4999 11 14.4999Z" fill="black" stroke="black" stroke-width="2" stroke-linejoin="round"/>
</mask>
<g mask="url(#mask0_873_11432)">
<path d="M-1 -1H23V23H-1V-1Z" fill="#A1A1A1"/>
</g>
</svg>
