<svg width="16" height="16" viewBox="0 0 16 16" fill="none" xmlns="http://www.w3.org/2000/svg">
<g clip-path="url(#clip0_1266_7324)">
<mask id="mask0_1266_7324" style="mask-type:luminance" maskUnits="userSpaceOnUse" x="0" y="0" width="16" height="16">
<path d="M0 0H16V16H0V0Z" fill="white"/>
</mask>
<g mask="url(#mask0_1266_7324)">
<path fill-rule="evenodd" clip-rule="evenodd" d="M16 8C16 12.418 12.418 16 8 16C3.582 16 0 12.418 0 8C0 3.582 3.582 0 8 0C12.418 0 16 3.582 16 8ZM4 10.8H10V6.4C10 6.24241 9.96896 6.08637 9.90866 5.94078C9.84835 5.79519 9.75996 5.6629 9.64853 5.55147C9.5371 5.44004 9.40481 5.35165 9.25922 5.29134C9.11363 5.23104 8.95759 5.2 8.8 5.2H2.8V9.6C2.8 9.91826 2.92643 10.2235 3.15147 10.4485C3.2629 10.56 3.39519 10.6483 3.54078 10.7087C3.68637 10.769 3.84241 10.8 4 10.8ZM10.8 9.2L13.2 10.8V5.2L10.8 6.8V9.2Z" fill="#4085FE"/>
</g>
</g>
<defs>
<clipPath id="clip0_1266_7324">
<rect width="16" height="16" fill="white"/>
</clipPath>
</defs>
</svg>
