<svg width="22" height="16" viewBox="0 0 22 16" fill="none" xmlns="http://www.w3.org/2000/svg">
<g clip-path="url(#clip0_874_17801)">
<path d="M13.8976 11.362H8.33203V1.35983H13.8976V11.362Z" fill="#6C6BBD"/>
<path d="M8.68617 6.36117C8.68617 4.33214 9.63612 2.52478 11.1155 1.36008C10.0337 0.508382 8.66824 0 7.1845 0C3.67174 0 0.824219 2.84792 0.824219 6.36117C0.824219 9.87433 3.67174 12.7223 7.1845 12.7223C8.66832 12.7223 10.0337 12.2139 11.1155 11.3622C9.63612 10.1975 8.68617 8.39011 8.68617 6.36117Z" fill="#D32011"/>
<path d="M21.4069 6.36117C21.4069 9.87433 18.5594 12.7223 15.0467 12.7223C13.5628 12.7223 12.1974 12.2139 11.1152 11.3622C12.595 10.1975 13.545 8.39011 13.545 6.36117C13.545 4.33214 12.595 2.52478 11.1152 1.36008C12.1974 0.508382 13.5629 0 15.0467 0C18.5594 0 21.4069 2.84792 21.4069 6.36117Z" fill="#0099DF"/>
<path d="M15.782 14.1882C15.856 14.1882 15.9624 14.2024 16.0437 14.2343L15.9304 14.5805C15.8528 14.5486 15.7751 14.538 15.7007 14.538C15.4605 14.538 15.3404 14.6933 15.3404 14.9724V15.9195H14.9728V14.2307H15.3368V14.4357C15.4322 14.2873 15.5701 14.1882 15.782 14.1882ZM14.424 14.5663H13.8233V15.3294C13.8233 15.4989 13.8832 15.6121 14.0673 15.6121C14.1627 15.6121 14.2828 15.5802 14.392 15.5167L14.4979 15.831C14.3815 15.9122 14.1979 15.962 14.0389 15.962C13.6042 15.962 13.4525 15.7286 13.4525 15.3364V14.5663H13.1096V14.2307H13.4525V13.7183H13.8233V14.2307H14.424V14.5663ZM9.72092 14.9267C9.76015 14.6828 9.90825 14.5167 10.1699 14.5167C10.4064 14.5167 10.5585 14.665 10.5973 14.9267H9.72092ZM10.9791 15.0751C10.9754 14.5485 10.6503 14.1882 10.1767 14.1882C9.68216 14.1882 9.33595 14.5486 9.33595 15.075C9.33595 15.6117 9.69631 15.9616 10.2018 15.9616C10.4562 15.9616 10.6891 15.898 10.8941 15.725L10.7138 15.4529C10.5727 15.5661 10.3923 15.6296 10.2229 15.6296C9.98624 15.6296 9.77069 15.52 9.7177 15.2163H10.9718C10.9754 15.1702 10.9791 15.1244 10.9791 15.0751ZM12.5935 14.6618C12.4912 14.5979 12.2828 14.5166 12.0673 14.5166C11.8659 14.5166 11.7458 14.591 11.7458 14.7148C11.7458 14.8276 11.8728 14.8595 12.0318 14.8806L12.2049 14.9052C12.5725 14.9586 12.7948 15.114 12.7948 15.4108C12.7948 15.7323 12.5122 15.962 12.0248 15.962C11.7491 15.962 11.4947 15.8912 11.2932 15.7428L11.4664 15.4565C11.5901 15.5519 11.7741 15.6332 12.0285 15.6332C12.2792 15.6332 12.4135 15.5592 12.4135 15.4282C12.4135 15.3331 12.3181 15.2797 12.1167 15.2519L11.9436 15.2272C11.5654 15.1738 11.3604 15.0043 11.3604 14.7289C11.3604 14.3932 11.6362 14.1882 12.0637 14.1882C12.3322 14.1882 12.5761 14.2485 12.7524 14.3649L12.5935 14.6618ZM17.125 14.5372C17.0494 14.5372 16.9794 14.5506 16.9143 14.5769C16.8513 14.6024 16.7941 14.6403 16.746 14.6885C16.6978 14.7378 16.6598 14.7962 16.6344 14.8604C16.6073 14.9271 16.594 15.0007 16.594 15.0808C16.594 15.1612 16.6073 15.2344 16.6344 15.3011C16.6615 15.3679 16.6988 15.4254 16.746 15.473C16.7941 15.5212 16.8513 15.5591 16.9143 15.5846C16.9794 15.6113 17.0494 15.6243 17.125 15.6243C17.2006 15.6243 17.271 15.6114 17.3356 15.5846C17.399 15.5592 17.4565 15.5213 17.5047 15.473C17.5529 15.4254 17.5901 15.3679 17.6176 15.3011C17.6447 15.2344 17.658 15.1612 17.658 15.0808C17.658 15.0007 17.6447 14.9271 17.6176 14.8604C17.5901 14.7936 17.5529 14.7362 17.5047 14.6885C17.4565 14.6402 17.399 14.6023 17.3357 14.5769C17.2687 14.5501 17.1972 14.5366 17.1251 14.5372M17.1251 14.1883C17.2561 14.1883 17.3774 14.211 17.489 14.2566C17.597 14.2996 17.6954 14.3633 17.7786 14.4443C17.8606 14.5246 17.9257 14.6206 17.9699 14.7265C18.016 14.8354 18.0391 14.9535 18.0391 15.0808C18.0391 15.2082 18.016 15.3263 17.9699 15.4351C17.9256 15.5411 17.8606 15.6373 17.7786 15.7178C17.6974 15.7975 17.6006 15.8598 17.4891 15.9054C17.3774 15.9508 17.2561 15.9734 17.1251 15.9734C16.994 15.9734 16.8727 15.9508 16.7611 15.9054C16.6495 15.8598 16.5536 15.7975 16.4728 15.7178C16.3912 15.637 16.3265 15.5409 16.2822 15.4351C16.2361 15.3263 16.2131 15.2082 16.2131 15.0808C16.2131 14.9535 16.2361 14.8354 16.2822 14.7266C16.3265 14.6208 16.3912 14.5249 16.4728 14.4443C16.5555 14.3633 16.6535 14.2995 16.7611 14.2566C16.8727 14.211 16.994 14.1883 17.1251 14.1883ZM7.57434 15.075C7.57434 14.7783 7.76892 14.5344 8.08675 14.5344C8.3905 14.5344 8.59553 14.7677 8.59553 15.0751C8.59553 15.3824 8.3905 15.6154 8.08675 15.6154C7.76892 15.6154 7.57434 15.3719 7.57434 15.075ZM8.94174 15.0751V14.2307H8.57446V14.4358C8.45764 14.2837 8.28132 14.1883 8.04108 14.1883C7.56751 14.1883 7.19662 14.5591 7.19662 15.0751C7.19662 15.5908 7.56751 15.962 8.04108 15.962C8.28132 15.962 8.45756 15.8666 8.57446 15.7146V15.9196H8.94174V15.0751ZM6.87139 15.9196V14.8596C6.87139 14.4605 6.617 14.1919 6.20735 14.1883C5.99179 14.1847 5.76892 14.2518 5.61366 14.4888C5.49716 14.3015 5.3132 14.1883 5.05519 14.1883C4.87517 14.1883 4.69844 14.2413 4.56056 14.439V14.2307H4.19336V15.9196H4.56417V14.9834C4.56417 14.6902 4.72675 14.5345 4.97744 14.5345C5.22138 14.5345 5.34512 14.6934 5.34512 14.9798V15.9196H5.71601V14.9833C5.71601 14.6901 5.88582 14.5344 6.12928 14.5344C6.38045 14.5344 6.50058 14.6933 6.50058 14.9797V15.9196H6.87139Z" fill="#110F0D"/>
</g>
<defs>
<clipPath id="clip0_874_17801">
<rect width="20.59" height="16" fill="white" transform="translate(0.820312)"/>
</clipPath>
</defs>
</svg>
