<svg width="37" height="16" viewBox="0 0 37 16" fill="none" xmlns="http://www.w3.org/2000/svg">
<path d="M14.5323 0.204912L9.82817 11.4271H6.75926L4.44431 2.47074C4.30396 1.92042 4.18199 1.71789 3.75491 1.48519C3.0568 1.10596 1.90396 0.751298 0.890625 0.530667L0.958976 0.204912H5.89989C6.52866 0.204912 7.09484 0.623579 7.23884 1.34849L8.46199 7.84295L11.4818 0.204912H14.5323ZM18.6811 0.204912L16.2807 11.4271H13.3771L15.7778 0.204912H18.6811ZM26.557 7.76309C26.5691 4.80182 22.4624 4.63747 22.4892 3.31439C22.499 2.91214 22.8822 2.48393 23.7209 2.37446C24.1364 2.3207 25.2842 2.27789 26.5842 2.87691L27.0929 0.495719C26.3943 0.243088 25.4954 0 24.3772 0C21.507 0 19.4881 1.52449 19.472 3.70919C19.4532 5.32519 20.9141 6.22582 22.0127 6.76407C23.1444 7.31368 23.5239 7.66695 23.5187 8.15818C23.5106 8.91116 22.6148 9.24449 21.7821 9.25684C20.3219 9.28 19.4755 8.86218 18.8002 8.54765L18.2732 11.0077C18.9525 11.319 20.2045 11.5895 21.5012 11.6032C24.5524 11.6032 26.548 10.0961 26.557 7.76309ZM34.136 11.4272H36.8204L34.4752 0.204912H31.9984C31.4398 0.204912 30.9703 0.529123 30.7621 1.02751L26.4056 11.4271H29.4544L30.0592 9.75074H33.7841L34.136 11.4272ZM30.8953 7.45123L32.424 3.23691L33.3021 7.45123H30.8953ZM22.397 14.5162H21.2172V15.6142H22.5368V15.9443H20.8197V12.8982H22.4692V13.2284H21.2172V14.1907H22.3969L22.397 14.5162ZM23.1463 12.7357H23.5438V15.9441H23.1463V12.7357ZM24.5468 14.9228C24.5557 15.4608 24.8948 15.6821 25.2968 15.6821C25.5817 15.6821 25.7579 15.6324 25.9027 15.5693L25.9748 15.854C25.8348 15.9172 25.5908 15.994 25.2426 15.994C24.5695 15.994 24.1674 15.5467 24.1674 14.8867C24.1674 14.2271 24.5557 13.7117 25.1931 13.7117C25.9117 13.7117 26.0969 14.3356 26.0969 14.7377C26.0969 14.8189 26.0923 14.8776 26.0832 14.9229L24.5468 14.9228ZM25.7127 14.6382C25.7173 14.3898 25.6088 13.9965 25.1614 13.9965C24.7546 13.9965 24.5828 14.3625 24.5511 14.6382H25.7127ZM28.2606 15.8674C28.1567 15.9172 27.9261 15.9941 27.6325 15.9941C26.9727 15.9941 26.5434 15.5467 26.5434 14.8778C26.5434 14.2044 27.0042 13.7119 27.7183 13.7119C27.9532 13.7119 28.1611 13.7704 28.2696 13.8293L28.1795 14.1321C28.0842 14.0824 27.9351 14.0279 27.7183 14.0279C27.2165 14.0279 26.9456 14.4031 26.9456 14.8553C26.9456 15.3613 27.271 15.6731 27.7048 15.6731C27.9308 15.6731 28.0798 15.6189 28.1928 15.5693L28.2606 15.8674ZM29.3761 13.2327V13.7569H29.9454V14.0595H29.3761V15.2392C29.3761 15.5106 29.453 15.664 29.6743 15.664C29.7827 15.664 29.8461 15.6552 29.9049 15.6368L29.923 15.9399C29.8461 15.9669 29.7242 15.994 29.5705 15.994C29.3851 15.994 29.2359 15.9307 29.1412 15.8269C29.0327 15.7047 28.9875 15.5106 28.9875 15.2529V14.0595H28.6484V13.7569H28.9875V13.3502L29.3761 13.2327ZM30.5007 14.4394C30.5007 14.1818 30.496 13.9604 30.4826 13.7569H30.8307L30.8489 14.1906H30.8621C30.9618 13.8971 31.2056 13.7117 31.4721 13.7117C31.5129 13.7117 31.5447 13.7164 31.5809 13.7207V14.096C31.5402 14.0867 31.4996 14.0867 31.445 14.0867C31.1652 14.0867 30.966 14.2946 30.912 14.5931C30.9026 14.6544 30.8981 14.7164 30.8983 14.7784V15.9444H30.5007V14.4394ZM34.0251 14.8324C34.0251 15.6414 33.46 15.994 32.936 15.994C32.3483 15.994 31.8875 15.56 31.8875 14.8688C31.8875 14.1411 32.371 13.7119 32.9722 13.7119C33.6002 13.7119 34.0251 14.1679 34.0251 14.8324ZM32.2941 14.8553C32.2941 15.3343 32.5653 15.696 32.9539 15.696C33.3337 15.696 33.6182 15.3387 33.6182 14.8462C33.6182 14.4756 33.4329 14.01 32.9629 14.01C32.4976 14.01 32.2941 14.4441 32.2941 14.8553ZM34.6345 14.3491C34.6345 14.1187 34.6297 13.9378 34.6162 13.7572H34.9688L34.9914 14.1187H35.0004C35.1089 13.9152 35.3619 13.712 35.7235 13.712C36.0261 13.712 36.4962 13.8928 36.4962 14.6427V15.9444H36.0986V14.6835C36.0986 14.3312 35.9675 14.0372 35.5925 14.0372C35.3348 14.0372 35.1313 14.2226 35.0593 14.4439C35.0411 14.4938 35.0321 14.5614 35.0321 14.6293V15.9444H34.6345V14.3491Z" fill="#1A1F71"/>
</svg>
