<svg width="41" height="40" viewBox="0 0 41 40" fill="none" xmlns="http://www.w3.org/2000/svg">
<path d="M15.4987 26.667H18.832V21.667H23.832V18.3337H18.832V13.3337H15.4987V18.3337H10.4987V21.667H15.4987V26.667ZM7.16536 33.3337C6.2487 33.3337 5.46425 33.0075 4.81203 32.3553C4.15981 31.7031 3.83314 30.9181 3.83203 30.0003V10.0003C3.83203 9.08366 4.1587 8.29921 4.81203 7.64699C5.46536 6.99477 6.24981 6.6681 7.16536 6.66699H27.1654C28.082 6.66699 28.867 6.99366 29.5204 7.64699C30.1737 8.30033 30.4998 9.08477 30.4987 10.0003V17.5003L37.1654 10.8337V29.167L30.4987 22.5003V30.0003C30.4987 30.917 30.1726 31.702 29.5204 32.3553C28.8681 33.0087 28.0831 33.3348 27.1654 33.3337H7.16536ZM7.16536 30.0003H27.1654V10.0003H7.16536V30.0003Z" fill="#2A85FF"/>
</svg>
