<svg width="16" height="16" viewBox="0 0 16 16" fill="none" xmlns="http://www.w3.org/2000/svg">
<path d="M9 10.6667C9.13261 10.6667 9.25979 10.7193 9.35355 10.8131C9.44732 10.9069 9.5 11.0341 9.5 11.1667C9.5 11.2993 9.44732 11.4265 9.35355 11.5202C9.25979 11.614 9.13261 11.6667 9 11.6667H7C6.86739 11.6667 6.74022 11.614 6.64645 11.5202C6.55268 11.4265 6.5 11.2993 6.5 11.1667C6.5 11.0341 6.55268 10.9069 6.64645 10.8131C6.74022 10.7193 6.86739 10.6667 7 10.6667H9ZM11 7.33333C11.1326 7.33333 11.2598 7.38601 11.3536 7.47978C11.4473 7.57355 11.5 7.70072 11.5 7.83333C11.5 7.96594 11.4473 8.09312 11.3536 8.18689C11.2598 8.28065 11.1326 8.33333 11 8.33333H5C4.86739 8.33333 4.74021 8.28065 4.64645 8.18689C4.55268 8.09312 4.5 7.96594 4.5 7.83333C4.5 7.70072 4.55268 7.57355 4.64645 7.47978C4.74021 7.38601 4.86739 7.33333 5 7.33333H11ZM13 4C13.1326 4 13.2598 4.05268 13.3536 4.14645C13.4473 4.24021 13.5 4.36739 13.5 4.5C13.5 4.63261 13.4473 4.75979 13.3536 4.85355C13.2598 4.94732 13.1326 5 13 5H3C2.86739 5 2.74021 4.94732 2.64645 4.85355C2.55268 4.75979 2.5 4.63261 2.5 4.5C2.5 4.36739 2.55268 4.24021 2.64645 4.14645C2.74021 4.05268 2.86739 4 3 4H13Z" fill="#070707"/>
</svg>
