<svg width="18" height="18" viewBox="0 0 18 18" fill="none" xmlns="http://www.w3.org/2000/svg">
<path d="M14.25 8.25012H3.75C2.92157 8.25012 2.25 8.92169 2.25 9.75012V15.0001C2.25 15.8285 2.92157 16.5001 3.75 16.5001H14.25C15.0784 16.5001 15.75 15.8285 15.75 15.0001V9.75012C15.75 8.92169 15.0784 8.25012 14.25 8.25012Z" stroke="#070707" stroke-width="1.5" stroke-linecap="round" stroke-linejoin="round"/>
<path d="M5.25 8.25012V5.25012C5.25 4.25556 5.64509 3.30173 6.34835 2.59847C7.05161 1.89521 8.00544 1.50012 9 1.50012C9.99456 1.50012 10.9484 1.89521 11.6517 2.59847C12.3549 3.30173 12.75 4.25556 12.75 5.25012V8.25012" stroke="#070707" stroke-width="1.5" stroke-linecap="round" stroke-linejoin="round"/>
</svg>
