<svg width="17" height="16" viewBox="0 0 17 16" fill="none" xmlns="http://www.w3.org/2000/svg">
<path d="M8.5 10C9.60457 10 10.5 9.10457 10.5 8C10.5 6.89543 9.60457 6 8.5 6C7.39543 6 6.5 6.89543 6.5 8C6.5 9.10457 7.39543 10 8.5 10Z" stroke="#2A85FF"/>
<path d="M9.67697 1.43467C9.4323 1.33333 9.12163 1.33333 8.5003 1.33333C7.87897 1.33333 7.5683 1.33333 7.32363 1.43467C7.16175 1.50168 7.01467 1.59993 6.89078 1.72382C6.7669 1.8477 6.66864 1.99479 6.60163 2.15667C6.5403 2.30533 6.51563 2.47933 6.5063 2.732C6.50215 2.91466 6.45163 3.09327 6.35951 3.25105C6.26738 3.40883 6.13667 3.5406 5.97963 3.634C5.82023 3.72336 5.64073 3.77073 5.45799 3.77167C5.27525 3.7726 5.09527 3.72706 4.93497 3.63933C4.71097 3.52067 4.54897 3.45533 4.3883 3.434C4.03785 3.38791 3.68343 3.48287 3.40297 3.698C3.19363 3.86 3.03763 4.12867 2.72697 4.66667C2.4163 5.20467 2.2603 5.47333 2.2263 5.73667C2.20339 5.9103 2.21491 6.08675 2.26021 6.25593C2.30551 6.42511 2.38369 6.58371 2.4903 6.72267C2.58897 6.85067 2.72697 6.958 2.94097 7.09267C3.2563 7.29067 3.45897 7.628 3.45897 8C3.45897 8.372 3.2563 8.70933 2.94097 8.90667C2.72697 9.042 2.5883 9.14933 2.4903 9.27733C2.38369 9.41629 2.30551 9.57489 2.26021 9.74407C2.21491 9.91325 2.20339 10.0897 2.2263 10.2633C2.26097 10.526 2.4163 10.7953 2.7263 11.3333C3.03763 11.8713 3.19297 12.14 3.40297 12.302C3.54192 12.4086 3.70052 12.4868 3.8697 12.5321C4.03888 12.5774 4.21533 12.5889 4.38897 12.566C4.54897 12.5447 4.71097 12.4793 4.93497 12.3607C5.09527 12.2729 5.27525 12.2274 5.45799 12.2283C5.64073 12.2293 5.82023 12.2766 5.97963 12.366C6.30163 12.5527 6.49297 12.896 6.5063 13.268C6.51563 13.5213 6.53963 13.6947 6.60163 13.8433C6.66864 14.0052 6.7669 14.1523 6.89078 14.2762C7.01467 14.4001 7.16175 14.4983 7.32363 14.5653C7.5683 14.6667 7.87897 14.6667 8.5003 14.6667C9.12163 14.6667 9.4323 14.6667 9.67697 14.5653C9.83885 14.4983 9.98593 14.4001 10.1098 14.2762C10.2337 14.1523 10.332 14.0052 10.399 13.8433C10.4603 13.6947 10.485 13.5213 10.4943 13.268C10.5076 12.896 10.699 12.552 11.021 12.366C11.1804 12.2766 11.3599 12.2293 11.5426 12.2283C11.7254 12.2274 11.9053 12.2729 12.0656 12.3607C12.2896 12.4793 12.4516 12.5447 12.6116 12.566C12.7853 12.5889 12.9617 12.5774 13.1309 12.5321C13.3001 12.4868 13.4587 12.4086 13.5976 12.302C13.8076 12.1407 13.963 11.8713 14.2736 11.3333C14.5843 10.7953 14.7403 10.5267 14.7743 10.2633C14.7972 10.0897 14.7857 9.91325 14.7404 9.74407C14.6951 9.57489 14.6169 9.41629 14.5103 9.27733C14.4116 9.14933 14.2736 9.042 14.0596 8.90733C13.9035 8.81241 13.774 8.67933 13.6834 8.52061C13.5928 8.3619 13.544 8.18275 13.5416 8C13.5416 7.628 13.7443 7.29067 14.0596 7.09333C14.2736 6.958 14.4123 6.85067 14.5103 6.72267C14.6169 6.58371 14.6951 6.42511 14.7404 6.25593C14.7857 6.08675 14.7972 5.9103 14.7743 5.73667C14.7396 5.474 14.5843 5.20467 14.2743 4.66667C13.963 4.12867 13.8076 3.86 13.5976 3.698C13.4587 3.59139 13.3001 3.51321 13.1309 3.46791C12.9617 3.42261 12.7853 3.41109 12.6116 3.434C12.4516 3.45533 12.2896 3.52067 12.065 3.63933C11.9047 3.72694 11.7249 3.77242 11.5423 3.77148C11.3597 3.77055 11.1803 3.72324 11.021 3.634C10.8639 3.5406 10.7332 3.40883 10.6411 3.25105C10.549 3.09327 10.4985 2.91466 10.4943 2.732C10.485 2.47867 10.461 2.30533 10.399 2.15667C10.332 1.99479 10.2337 1.8477 10.1098 1.72382C9.98593 1.59993 9.83885 1.50168 9.67697 1.43467Z" stroke="#2A85FF"/>
</svg>
