<svg width="14" height="12" viewBox="0 0 14 12" fill="none" xmlns="http://www.w3.org/2000/svg">
<path d="M4.052 4.706C4.533 4.656 4.905 4.743 5.038 4.809C5.09694 4.84078 5.16166 4.8604 5.22832 4.8667C5.29499 4.87299 5.36224 4.86583 5.42608 4.84564C5.48993 4.82545 5.54907 4.79264 5.59999 4.74916C5.65092 4.70568 5.69259 4.65241 5.72253 4.59252C5.75248 4.53262 5.77009 4.46733 5.77432 4.4005C5.77855 4.33367 5.76932 4.26668 5.74716 4.20349C5.72501 4.14029 5.69039 4.0822 5.64535 4.03264C5.60032 3.98309 5.54579 3.94308 5.485 3.915C5.134 3.739 4.557 3.648 3.948 3.712C2.988 3.812 2 4.646 2 6.009C2 7.394 3.054 8.309 4.3 8.309C4.88 8.309 5.4 8.037 5.697 7.756C5.959 7.508 6 7.179 6 6.973V6.009C6 5.87639 5.94732 5.74921 5.85355 5.65545C5.75979 5.56168 5.63261 5.509 5.5 5.509H4.693C4.56039 5.509 4.43321 5.56168 4.33945 5.65545C4.24568 5.74921 4.193 5.87639 4.193 6.009C4.193 6.14161 4.24568 6.26879 4.33945 6.36255C4.43321 6.45632 4.56039 6.509 4.693 6.509H5V6.973C4.99998 6.99679 4.99797 7.02054 4.994 7.044C4.7993 7.2083 4.55465 7.30172 4.3 7.309C3.569 7.309 3 6.804 3 6.009C3 5.191 3.567 4.757 4.052 4.706ZM8 4.21C8 4.07739 7.94732 3.95021 7.85355 3.85645C7.75979 3.76268 7.63261 3.71 7.5 3.71C7.36739 3.71 7.24021 3.76268 7.14645 3.85645C7.05268 3.95021 7 4.07739 7 4.21V7.81C7 7.94261 7.05268 8.06979 7.14645 8.16355C7.24021 8.25732 7.36739 8.31 7.5 8.31C7.63261 8.31 7.75979 8.25732 7.85355 8.16355C7.94732 8.06979 8 7.94261 8 7.81V4.21ZM9.5 3.71C9.36739 3.71 9.24021 3.76268 9.14645 3.85645C9.05268 3.95021 9 4.07739 9 4.21V7.81C9 7.94261 9.05268 8.06979 9.14645 8.16355C9.24021 8.25732 9.36739 8.31 9.5 8.31C9.63261 8.31 9.75979 8.25732 9.85355 8.16355C9.94732 8.06979 10 7.94261 10 7.81V6.506L11.003 6.5C11.1356 6.4992 11.2625 6.44576 11.3557 6.35143C11.4489 6.2571 11.5008 6.12961 11.5 5.997C11.4992 5.86439 11.4458 5.73753 11.3514 5.64433C11.2571 5.55112 11.1296 5.4992 10.997 5.5L10 5.506V4.709H11.5C11.6326 4.709 11.7598 4.65632 11.8536 4.56255C11.9473 4.46879 12 4.34161 12 4.209C12 4.07639 11.9473 3.94921 11.8536 3.85545C11.7598 3.76168 11.6326 3.709 11.5 3.709L9.5 3.71ZM2.5 0C1.83696 0 1.20107 0.263392 0.732233 0.732233C0.263392 1.20107 0 1.83696 0 2.5V9.5C0 10.163 0.263392 10.7989 0.732233 11.2678C1.20107 11.7366 1.83696 12 2.5 12H11.5C12.163 12 12.7989 11.7366 13.2678 11.2678C13.7366 10.7989 14 10.163 14 9.5V2.5C14 1.83696 13.7366 1.20107 13.2678 0.732233C12.7989 0.263392 12.163 0 11.5 0H2.5ZM1 2.5C1 2.10218 1.15804 1.72064 1.43934 1.43934C1.72064 1.15804 2.10218 1 2.5 1H11.5C11.8978 1 12.2794 1.15804 12.5607 1.43934C12.842 1.72064 13 2.10218 13 2.5V9.5C13 9.89782 12.842 10.2794 12.5607 10.5607C12.2794 10.842 11.8978 11 11.5 11H2.5C2.10218 11 1.72064 10.842 1.43934 10.5607C1.15804 10.2794 1 9.89782 1 9.5V2.5Z" fill="#A1A1A1"/>
</svg>
