<svg width="14" height="16" viewBox="0 0 14 16" fill="none" xmlns="http://www.w3.org/2000/svg">
<path d="M7.01364 2.18754C7.78118 1.42007 8.82216 0.988936 9.90757 0.988983C10.993 0.98903 12.0339 1.42025 12.8014 2.18779C13.5689 2.95533 14 3.9963 14 5.08172C13.9999 6.16713 13.5687 7.20807 12.8011 7.97554L6.52964 14.2465C6.29564 14.4866 6.01631 14.6777 5.70785 14.809C5.39939 14.9402 5.06794 15.0088 4.73273 15.011C4.39753 15.0131 4.06524 14.9487 3.75513 14.8214C3.44503 14.6941 3.16329 14.5065 2.92626 14.2694C2.68923 14.0324 2.50163 13.7507 2.37433 13.4405C2.24703 13.1304 2.18258 12.7982 2.18471 12.4629C2.18684 12.1277 2.25551 11.7963 2.38673 11.4878C2.51795 11.1794 2.70912 10.9 2.94914 10.666L8.51914 5.09504C8.63637 4.97775 8.79539 4.91183 8.96122 4.91178C9.12705 4.91173 9.2861 4.97756 9.40339 5.09479C9.52069 5.21202 9.58661 5.37103 9.58665 5.53686C9.5867 5.70269 9.52087 5.86175 9.40364 5.97904L3.83214 11.549C3.71307 11.6681 3.61861 11.8095 3.55417 11.9651C3.48972 12.1206 3.45656 12.2874 3.45656 12.4558C3.45656 12.7959 3.59166 13.1221 3.83214 13.3625C4.07263 13.603 4.3988 13.7381 4.73889 13.7381C5.07899 13.7381 5.40516 13.603 5.64564 13.3625L11.9171 7.09104C12.1811 6.82708 12.3905 6.51372 12.5333 6.16884C12.6762 5.82397 12.7497 5.45433 12.7497 5.08104C12.7497 4.70775 12.6762 4.33811 12.5333 3.99324C12.3905 3.64836 12.1811 3.335 11.9171 3.07104C11.6532 2.80708 11.3398 2.5977 10.9949 2.45485C10.6501 2.312 10.2804 2.23847 9.90714 2.23847C9.53385 2.23847 9.16422 2.312 8.81934 2.45485C8.47446 2.5977 8.1611 2.80708 7.89714 3.07104L1.06714 9.90254C0.949918 10.0198 0.790926 10.0856 0.625143 10.0856C0.459361 10.0856 0.300369 10.0198 0.183144 9.90254C0.0659178 9.78531 6.10352e-05 9.62632 6.10352e-05 9.46054C6.10352e-05 9.29476 0.0659178 9.13577 0.183144 9.01854L7.01364 2.18754Z" fill="#A1A1A1"/>
</svg>
