<svg width="16" height="16" viewBox="0 0 16 16" fill="none" xmlns="http://www.w3.org/2000/svg">
<g clip-path="url(#clip0_1203_6155)">
<path d="M15.138 15.1386C15.3983 14.8783 15.3983 14.4563 15.138 14.196L1.80429 0.862334C1.54414 0.60218 1.12237 0.602107 0.862125 0.862168C0.60175 1.12236 0.601675 1.54438 0.861958 1.80467L0.999958 1.94267V14.0341C0.999958 14.4637 1.50592 14.6933 1.82921 14.4104L4.58396 12H11.0573L14.1953 15.1386C14.4556 15.3989 14.8777 15.399 15.138 15.1386ZM9.72396 10.6673H4.08263L2.33329 12.198V3.27667L9.72396 10.6673ZM13.8619 10.8588C14.2824 11.2797 15.0018 10.9818 15.0017 10.3869L15.0003 3.33296C15.0001 2.22854 14.1048 1.33333 13.0003 1.33333H6.43662L4.15796 1.33133L5.49329 2.66667H12.6666C13.2189 2.66667 13.6666 3.11438 13.6666 3.66667V10.387C13.6666 10.564 13.7369 10.7336 13.8619 10.8588Z" fill="#A1A1A1"/>
</g>
<defs>
<clipPath id="clip0_1203_6155">
<rect width="16" height="16" fill="white"/>
</clipPath>
</defs>
</svg>
