<svg width="16" height="16" viewBox="0 0 16 16" fill="none" xmlns="http://www.w3.org/2000/svg">
<path d="M11.0001 6C11.2653 6 11.5196 5.89465 11.7072 5.70711C11.8947 5.51957 12.0001 5.26522 12.0001 5C12.0001 4.73479 11.8947 4.48043 11.7072 4.2929C11.5196 4.10536 11.2653 4 11.0001 4C10.7349 4 10.4805 4.10536 10.293 4.2929C10.1054 4.48043 10.0001 4.73479 10.0001 5C10.0001 5.26522 10.1054 5.51957 10.293 5.70711C10.4805 5.89465 10.7349 6 11.0001 6ZM2.58707 10.136C2.40089 9.95121 2.25311 9.73139 2.15227 9.48923C2.05143 9.24706 1.99951 8.98733 1.99951 8.725C1.99951 8.46268 2.05143 8.20295 2.15227 7.96078C2.25311 7.71861 2.40089 7.4988 2.58707 7.314L7.32708 2.598C7.70202 2.22554 8.20858 2.01573 8.73708 2.014L11.9861 2C12.2507 1.99815 12.5131 2.04884 12.7581 2.14915C13.003 2.24945 13.2256 2.39737 13.4129 2.58434C13.6002 2.7713 13.7486 2.99359 13.8494 3.23831C13.9502 3.48304 14.0014 3.74534 14.0001 4.01L13.9761 7.373C13.9718 7.89766 13.7604 8.39938 13.3881 8.769L8.71808 13.416C8.34118 13.7902 7.83165 14.0001 7.30058 14.0001C6.7695 14.0001 6.25997 13.7902 5.88308 13.416L2.58707 10.136ZM3.29608 8.02C3.20313 8.11238 3.12937 8.22223 3.07904 8.34322C3.02871 8.46421 3.0028 8.59396 3.0028 8.725C3.0028 8.85605 3.02871 8.9858 3.07904 9.10679C3.12937 9.22778 3.20313 9.33762 3.29608 9.43L6.59208 12.71C6.98408 13.1 7.61808 13.1 8.01008 12.71L12.6801 8.063C12.8659 7.87803 12.9712 7.62719 12.9731 7.365L12.9971 4.002C12.9976 3.86984 12.9719 3.73888 12.9215 3.6167C12.8711 3.49452 12.797 3.38354 12.7035 3.29018C12.6099 3.19681 12.4988 3.12292 12.3765 3.07277C12.2542 3.02262 12.1232 2.99721 11.9911 2.998L8.74108 3.011C8.47683 3.01187 8.22355 3.11677 8.03608 3.303L3.29608 8.02Z" fill="#070707"/>
</svg>
