<svg width="16" height="16" viewBox="0 0 16 16" fill="none" xmlns="http://www.w3.org/2000/svg">
<path d="M5.3335 6.66667V4.66667C5.33286 4.01716 5.56929 3.38974 5.99841 2.90218C6.42754 2.41462 7.01986 2.10044 7.66419 2.01861C8.30853 1.93678 8.96058 2.09293 9.49796 2.45774C10.0353 2.82255 10.4211 3.37095 10.5828 4" stroke="#070707" stroke-linecap="round"/>
<path d="M3.3335 6.66666H12.6668V12.6667C12.6668 13.0203 12.5264 13.3594 12.2763 13.6095C12.0263 13.8595 11.6871 14 11.3335 14H4.66683C4.31321 14 3.97407 13.8595 3.72402 13.6095C3.47397 13.3594 3.3335 13.0203 3.3335 12.6667V6.66666Z" stroke="#070707" stroke-linejoin="round"/>
<path d="M9.66699 10.3333H9.67366V10.34H9.66699V10.3333Z" stroke="#070707" stroke-width="1.5" stroke-linejoin="round"/>
</svg>
