<svg width="16" height="17" viewBox="0 0 16 17" fill="none" xmlns="http://www.w3.org/2000/svg">
<path d="M9.5 7.5C9.5 7.10218 9.34196 6.72064 9.06066 6.43934C8.77936 6.15804 8.39782 6 8 6C7.60218 6 7.22064 6.15804 6.93934 6.43934C6.65804 6.72064 6.5 7.10218 6.5 7.5C6.5 7.89782 6.65804 8.27936 6.93934 8.56066C7.22064 8.84196 7.60218 9 8 9C8.39782 9 8.77936 8.84196 9.06066 8.56066C9.34196 8.27936 9.5 7.89782 9.5 7.5ZM14 7.5C14 10.374 10.903 13.516 9.159 15.058C8.84011 15.3428 8.42754 15.5002 8 15.5002C7.57246 15.5002 7.15989 15.3428 6.841 15.058C5.097 13.516 2 10.374 2 7.5C2 6.71207 2.15519 5.93185 2.45672 5.2039C2.75825 4.47595 3.20021 3.81451 3.75736 3.25736C4.31451 2.70021 4.97595 2.25825 5.7039 1.95672C6.43185 1.65519 7.21207 1.5 8 1.5C8.78793 1.5 9.56815 1.65519 10.2961 1.95672C11.0241 2.25825 11.6855 2.70021 12.2426 3.25736C12.7998 3.81451 13.2417 4.47595 13.5433 5.2039C13.8448 5.93185 14 6.71207 14 7.5ZM13 7.5C13 6.17392 12.4732 4.90215 11.5355 3.96447C10.5979 3.02678 9.32608 2.5 8 2.5C6.67392 2.5 5.40215 3.02678 4.46447 3.96447C3.52678 4.90215 3 6.17392 3 7.5C3 8.608 3.615 9.895 4.57 11.183C5.504 12.441 6.657 13.56 7.503 14.309C7.63912 14.4324 7.81628 14.5007 8 14.5007C8.18372 14.5007 8.36088 14.4324 8.497 14.309C9.343 13.56 10.497 12.442 11.43 11.183C12.385 9.895 13 8.608 13 7.5Z" fill="#070707"/>
</svg>
